<svg width="198" height="36" viewBox="0 0 198 36" fill="none" xmlns="http://www.w3.org/2000/svg">
<path d="M0.84446 35V2.27273H13.7564C16.228 2.27273 18.3374 2.71484 20.0845 3.59908C21.8423 4.47266 23.1793 5.71378 24.0955 7.32244C25.0224 8.92045 25.4858 10.8008 25.4858 12.9634C25.4858 15.1367 25.017 17.0064 24.0795 18.5724C23.142 20.1278 21.7837 21.321 20.0046 22.152C18.2362 22.983 16.0948 23.3984 13.5806 23.3984H4.93537V17.8374H12.462C13.783 17.8374 14.8803 17.6562 15.7539 17.294C16.6275 16.9318 17.2773 16.3885 17.7035 15.6641C18.1403 14.9396 18.3587 14.0394 18.3587 12.9634C18.3587 11.8768 18.1403 10.9606 17.7035 10.2148C17.2773 9.4691 16.6222 8.90447 15.7379 8.52095C14.8643 8.12678 13.7617 7.92969 12.43 7.92969H7.76385V35H0.84446ZM18.5185 20.1065L26.6523 35H19.0138L11.0558 20.1065H18.5185ZM29.2507 35V2.27273H51.3033V7.97763H36.1701V15.7759H50.1687V21.4808H36.1701V29.2951H51.3672V35H29.2507ZM55.6794 35V2.27273H77.732V7.97763H62.5988V15.7759H76.5974V21.4808H62.5988V29.2951H77.7959V35H55.6794ZM82.1081 35V2.27273H89.0275V29.2951H103.058V35H82.1081ZM124.269 11.685C124.141 10.396 123.593 9.39453 122.623 8.68075C121.654 7.96697 120.338 7.61008 118.676 7.61008C117.547 7.61008 116.593 7.76989 115.816 8.08949C115.038 8.39844 114.441 8.8299 114.026 9.38388C113.621 9.93785 113.419 10.5664 113.419 11.2695C113.397 11.8555 113.52 12.3668 113.786 12.8036C114.063 13.2404 114.441 13.6186 114.921 13.9382C115.4 14.2472 115.954 14.5188 116.583 14.7532C117.211 14.9769 117.883 15.1687 118.596 15.3285L121.537 16.0316C122.964 16.3512 124.275 16.7773 125.468 17.31C126.661 17.8427 127.694 18.4979 128.568 19.2756C129.441 20.0533 130.118 20.9695 130.597 22.0241C131.087 23.0788 131.338 24.288 131.348 25.6516C131.338 27.6545 130.826 29.391 129.814 30.8612C128.813 32.3207 127.364 33.4553 125.468 34.2649C123.582 35.0639 121.308 35.4634 118.644 35.4634C116.002 35.4634 113.701 35.0586 111.741 34.2489C109.791 33.4393 108.268 32.2408 107.171 30.6534C106.084 29.0554 105.514 27.0792 105.461 24.7248H112.156C112.231 25.8221 112.545 26.7383 113.099 27.4734C113.664 28.1978 114.415 28.7464 115.352 29.1193C116.301 29.4815 117.371 29.6626 118.564 29.6626C119.736 29.6626 120.754 29.4922 121.617 29.1513C122.49 28.8104 123.167 28.3363 123.646 27.729C124.125 27.1218 124.365 26.424 124.365 25.6357C124.365 24.9006 124.147 24.2827 123.71 23.782C123.284 23.2812 122.655 22.8551 121.824 22.5036C121.004 22.152 119.997 21.8324 118.804 21.5447L115.241 20.6499C112.481 19.9787 110.303 18.9293 108.705 17.5018C107.107 16.0742 106.313 14.1513 106.324 11.733C106.313 9.75142 106.84 8.02024 107.906 6.53942C108.982 5.05859 110.457 3.9027 112.332 3.07173C114.207 2.24077 116.338 1.82528 118.724 1.82528C121.153 1.82528 123.273 2.24077 125.084 3.07173C126.906 3.9027 128.323 5.05859 129.335 6.53942C130.347 8.02024 130.869 9.73544 130.901 11.685H124.269Z" fill="white"/>
<path d="M134.878 35V2.27273H147.981C150.389 2.27273 152.397 2.62962 154.006 3.34339C155.615 4.05717 156.824 5.04794 157.633 6.3157C158.443 7.5728 158.848 9.02166 158.848 10.6623C158.848 11.9407 158.592 13.0646 158.081 14.0341C157.569 14.9929 156.866 15.7812 155.971 16.3991C155.087 17.0064 154.075 17.4379 152.935 17.6935V18.0131C154.182 18.0664 155.348 18.418 156.435 19.0678C157.532 19.7177 158.422 20.6286 159.104 21.8004C159.785 22.9616 160.126 24.3466 160.126 25.9553C160.126 27.6918 159.695 29.2418 158.832 30.6055C157.98 31.9585 156.717 33.0291 155.045 33.8175C153.372 34.6058 151.311 35 148.86 35H134.878ZM141.797 29.343H147.438C149.366 29.343 150.773 28.9755 151.657 28.2404C152.541 27.4947 152.983 26.5039 152.983 25.2681C152.983 24.3626 152.765 23.5636 152.328 22.8711C151.891 22.1786 151.268 21.6353 150.458 21.2411C149.659 20.8469 148.706 20.6499 147.598 20.6499H141.797V29.343ZM141.797 15.9677H146.927C147.875 15.9677 148.716 15.8026 149.452 15.4723C150.197 15.1314 150.783 14.652 151.209 14.0341C151.646 13.4162 151.865 12.6758 151.865 11.8129C151.865 10.6303 151.444 9.67685 150.602 8.95241C149.771 8.22798 148.589 7.86577 147.055 7.86577H141.797V15.9677ZM163.376 35V10.4545H170.183V35H163.376ZM166.796 7.29048C165.783 7.29048 164.915 6.9549 164.191 6.28373C163.477 5.60192 163.12 4.78693 163.12 3.83878C163.12 2.90128 163.477 2.09695 164.191 1.42578C164.915 0.743962 165.783 0.403052 166.796 0.403052C167.808 0.403052 168.671 0.743962 169.384 1.42578C170.109 2.09695 170.471 2.90128 170.471 3.83878C170.471 4.78693 170.109 5.60192 169.384 6.28373C168.671 6.9549 167.808 7.29048 166.796 7.29048ZM185.602 35.4794C183.119 35.4794 180.973 34.9521 179.162 33.8974C177.361 32.832 175.971 31.3512 174.991 29.4549C174.011 27.5479 173.521 25.3374 173.521 22.8232C173.521 20.2876 174.011 18.0717 174.991 16.1754C175.971 14.2685 177.361 12.7876 179.162 11.733C180.973 10.6676 183.119 10.1349 185.602 10.1349C188.084 10.1349 190.225 10.6676 192.026 11.733C193.837 12.7876 195.232 14.2685 196.213 16.1754C197.193 18.0717 197.683 20.2876 197.683 22.8232C197.683 25.3374 197.193 27.5479 196.213 29.4549C195.232 31.3512 193.837 32.832 192.026 33.8974C190.225 34.9521 188.084 35.4794 185.602 35.4794ZM185.634 30.206C186.763 30.206 187.706 29.8864 188.462 29.2472C189.219 28.5973 189.789 27.7131 190.172 26.5945C190.566 25.4759 190.763 24.2028 190.763 22.7752C190.763 21.3477 190.566 20.0746 190.172 18.956C189.789 17.8374 189.219 16.9531 188.462 16.3033C187.706 15.6534 186.763 15.3285 185.634 15.3285C184.494 15.3285 183.535 15.6534 182.757 16.3033C181.99 16.9531 181.41 17.8374 181.015 18.956C180.632 20.0746 180.44 21.3477 180.44 22.7752C180.44 24.2028 180.632 25.4759 181.015 26.5945C181.41 27.7131 181.99 28.5973 182.757 29.2472C183.535 29.8864 184.494 30.206 185.634 30.206Z" fill="#0047AB"/>
</svg>
