<svg width="201" height="201" viewBox="0 0 201 201" fill="none" xmlns="http://www.w3.org/2000/svg">
<g clip-path="url(#clip0_75_177)">
<path d="M86.8351 53.064C86.8351 70.8238 72.4344 85.2241 54.674 85.2241C36.9135 85.2241 22.5128 70.8238 22.5128 53.064C22.5128 35.3043 36.9135 20.9041 54.674 20.9041C72.4344 20.9041 86.8351 35.3043 86.8351 53.064Z" fill="#FEC03E"/>
<path d="M90.8625 96.48H18.4783C15.4058 96.48 12.7066 94.4341 11.8882 91.4765L1.85935 55.2678C1.29222 53.2147 1.72295 51.0109 3.01514 49.3167C4.30733 47.6226 6.32458 46.632 8.44951 46.632H100.891C103.023 46.632 105.033 47.6226 106.326 49.3167C107.618 51.0109 108.049 53.2147 107.481 55.2678L97.4598 91.4765C96.6342 94.4412 93.935 96.4871 90.8625 96.48Z" fill="white"/>
<path d="M70.7545 17.688C70.7545 26.5679 63.5542 33.768 54.674 33.768C45.7938 33.768 38.5934 26.5679 38.5934 17.688C38.5934 8.80814 45.7938 1.60803 54.674 1.60803C63.5542 1.60803 70.7545 8.80814 70.7545 17.688Z" fill="#FFE048"/>
<path d="M180.102 157.584C180.102 175.344 165.702 189.744 147.941 189.744C130.181 189.744 115.78 175.344 115.78 157.584C115.78 139.824 130.181 125.424 147.941 125.424C165.702 125.424 180.102 139.824 180.102 157.584Z" fill="#FEC03E"/>
<path d="M184.13 201H111.746C108.673 201 105.974 198.954 105.156 195.997L95.1339 159.788C94.5668 157.735 94.9975 155.531 96.2897 153.837C97.5819 152.143 99.5991 151.152 101.724 151.152H194.159C196.291 151.152 198.301 152.143 199.593 153.837C200.885 155.531 201.316 157.735 200.749 159.788L190.727 195.997C189.902 198.954 187.202 201.007 184.13 201Z" fill="white"/>
<path d="M164.022 122.208C164.022 131.088 156.822 138.288 147.941 138.288C139.061 138.288 131.861 131.088 131.861 122.208C131.861 113.328 139.061 106.128 147.941 106.128C156.822 106.128 164.022 113.328 164.022 122.208Z" fill="#FFE048"/>
<path d="M84.6815 154.217L71.0417 139.803C69.6849 138.367 67.5887 137.908 65.7581 138.64C63.9203 139.372 62.7142 141.145 62.7142 143.126V147.943H46.1168C31.4935 147.943 19.0598 136.178 19.2967 121.82V109.351C19.2967 106.688 17.1359 104.527 14.4725 104.527H4.82417C2.16083 104.527 0 106.688 0 109.351L0.0143577 123.177C0.753777 147.893 21.6729 167.239 46.3896 167.239H62.7071V171.956C62.7071 173.93 63.9131 175.703 65.7509 176.435C67.5887 177.167 69.6777 176.701 71.0345 175.272C74.5091 171.604 81.2572 164.475 84.6743 160.857C86.4331 158.998 86.4331 156.091 84.6743 154.224L84.6815 154.217Z" fill="#FEC03E"/>
<path d="M144.596 84.7L130.159 71.0391C128.724 69.6824 128.264 67.5863 128.996 65.7557C129.729 63.918 131.502 62.712 133.483 62.712H138.3V46.1151C138.3 31.4924 126.534 19.0591 112.176 19.296H107.74C105.076 19.296 102.916 17.1353 102.916 14.472V4.824C102.916 2.16075 105.076 0 107.74 0L113.526 0.0143571C138.243 0.746571 157.59 21.6721 157.59 46.4023V62.712H162.385C164.352 62.712 166.111 63.9108 166.843 65.7342C167.568 67.5575 167.109 69.6393 165.68 70.9889C161.99 74.4777 154.819 81.2614 151.186 84.7C149.334 86.4444 146.448 86.4444 144.596 84.7Z" fill="#FEC03E"/>
</g>
<defs>
<clipPath id="clip0_75_177">
<rect width="201" height="201" fill="white"/>
</clipPath>
</defs>
</svg>
