<svg width="202" height="174" viewBox="0 0 202 174" fill="none" xmlns="http://www.w3.org/2000/svg">
<g clip-path="url(#clip0_75_89)">
<path d="M202 105.999C201.76 98.0991 198.724 90.1864 191.159 86.0973C192.424 73.8299 188.389 61.6024 180.065 52.4683C171.741 43.3341 159.927 38.1696 147.554 38.2493C141.628 16.2105 123.168 -0.0397397 100.9 8.93733e-05C80.7493 -0.0397397 63.6085 13.2366 56.1103 32.0758C3.26292 45.1796 14.7833 83.9731 14.7833 83.9731C-7.40511 92.7355 -4.16875 128.024 21.4825 128.582H180.304C193.117 128.98 201.654 117.735 201.987 105.999H202Z" fill="#FFE048"/>
<path d="M118.68 101.06L104.709 85.0351C103.777 83.973 102.432 83.3623 101.02 83.3623C99.6082 83.3623 98.2631 83.973 97.3308 85.0351L83.3598 101.06C82.1079 102.494 81.8149 104.538 82.6007 106.264C83.3998 108.003 85.1311 109.118 87.0357 109.118H90.4319V143.186C90.4319 145.867 92.6161 148.045 95.3064 148.045H106.694C109.384 148.045 111.581 145.867 111.581 143.186V109.118H114.978C116.896 109.118 118.627 108.003 119.413 106.264C120.212 104.525 119.905 102.494 118.654 101.06H118.68Z" fill="white"/>
<path d="M129.495 174H72.5453C67.1513 174 62.7829 169.645 62.7829 164.268V152.917C62.7829 150.235 64.9671 148.045 67.6707 148.045H72.5453C75.2356 148.045 77.4331 150.222 77.4331 152.917V159.409H126.245V152.917C126.245 150.235 128.429 148.045 131.133 148.045H134.383C137.073 148.045 139.257 150.222 139.257 152.917V164.268C139.257 169.645 134.889 174 129.495 174Z" fill="white"/>
<path d="M111.155 56.1192C112.247 56.9025 113.779 56.6503 114.565 55.5616C122.17 44.8742 134.422 38.4484 147.568 38.2493C147.115 36.5764 146.596 34.9302 145.983 33.3237C131.839 34.107 118.827 41.2497 110.596 52.7338C109.81 53.8224 110.063 55.3492 111.155 56.1325V56.1192Z" fill="#FEC03E"/>
<path d="M83.5596 36.7756C86.4097 38.3555 88.7804 34.0937 85.9302 32.5271C77.553 28.0397 68.0703 26.0217 58.5876 26.7254C57.6686 28.4646 56.8296 30.2436 56.097 32.0625C65.5131 30.5755 75.169 32.2351 83.5462 36.7623L83.5596 36.7756Z" fill="#FEC03E"/>
<path d="M191.159 86.0706C191.345 84.3314 191.425 82.5657 191.399 80.8132C187.496 79.22 183.328 78.3571 179.119 78.2509C175.869 78.2509 175.869 83.1233 179.119 83.1233C183.301 83.1764 187.43 84.1854 191.159 86.0706Z" fill="#FEC03E"/>
<path d="M32.0174 84.5041C34.8942 86.0309 37.1849 81.7293 34.3215 80.2025C28.3548 77.0295 19.8844 77.3614 13.931 79.074C14.0775 80.7336 14.3705 82.3666 14.7967 83.973C19.8444 82.3666 27.316 81.9816 32.0307 84.5041H32.0174Z" fill="#FEC03E"/>
</g>
<defs>
<clipPath id="clip0_75_89">
<rect width="202" height="174" fill="white"/>
</clipPath>
</defs>
</svg>
