<svg width="201" height="201" viewBox="0 0 201 201" fill="none" xmlns="http://www.w3.org/2000/svg">
<g clip-path="url(#clip0_75_160)">
<path d="M170.599 201C174.044 201 177.225 199.158 178.948 196.189C180.671 193.207 180.684 189.536 178.974 186.554C168.969 168.98 149.845 157.45 127.979 150.16C119.988 147.496 118.199 140.711 117.801 134.588V131.897C117.801 130.612 117.284 129.379 116.37 128.478C115.455 127.577 114.223 127.073 112.937 127.073L87.9433 127.245C85.2928 127.258 83.1459 129.419 83.1591 132.083V134.588C82.7616 140.711 80.9725 147.496 72.9813 150.16C51.1147 157.45 32.0047 168.98 21.9858 186.554C20.2762 189.549 20.2895 193.22 22.0256 196.202C23.7484 199.184 26.9422 201.013 30.3879 201.013H170.599V201Z" fill="#E4E4E4"/>
<path d="M178.988 186.554C173.09 176.693 164.834 168.45 154.961 162.565C154.815 168.41 152.151 173.778 142.066 175.368C130.576 177.184 114.051 181.465 100.507 190.013C86.9493 181.465 70.4367 177.184 58.9469 175.368C48.8617 173.778 46.198 168.423 46.0522 162.565C36.1791 168.45 27.9229 176.693 22.0255 186.554C20.316 189.549 20.3292 193.22 22.052 196.202C23.7748 199.184 26.9687 201.013 30.4011 201.013H170.612C174.058 201.013 177.238 199.184 178.961 196.202C180.684 193.22 180.697 189.549 178.988 186.554Z" fill="#CECECE"/>
<path d="M194.625 0H6.37435C4.65153 0 3.00822 0.702427 1.8155 1.93499C0.609528 3.16755 -0.0398422 4.82421 -8.48228e-05 6.54714C-0.145862 19.2041 5.84425 31.1453 16.0751 38.5937C26.9422 46.3601 35.8611 41.2841 43.415 48.2421C46.3172 50.9193 49.5641 55.8893 49.8424 65.9353V70.7595H151.144V65.9353C151.422 55.8893 154.669 50.9325 157.572 48.2421C165.112 41.2841 174.044 46.3601 184.911 38.5937C195.142 31.1453 201.132 19.2041 200.987 6.54714C201.026 4.82421 200.377 3.16755 199.184 1.93499C197.978 0.702427 196.335 0 194.625 0Z" fill="#FFE048"/>
<path d="M100.493 141.108C106.563 141.108 112.566 139.796 118.093 137.265C117.96 136.363 117.867 135.475 117.814 134.588V131.897C117.814 130.612 117.298 129.379 116.383 128.478C115.469 127.577 114.236 127.073 112.951 127.073L87.9566 127.245C85.3061 127.258 83.1592 129.419 83.1725 132.083V134.588C83.1195 135.475 83.0267 136.363 82.8942 137.265C88.4204 139.796 94.4238 141.108 100.493 141.108Z" fill="white"/>
<path d="M72.3584 55.4784C67.0309 55.4784 62.7106 59.799 62.7106 65.1268V98.2999C62.7106 119.174 79.6207 136.085 100.493 136.085C121.366 136.085 138.276 119.161 138.276 98.2999V65.1268C138.276 59.799 133.956 55.4784 128.628 55.4784H72.3451H72.3584Z" fill="#CECECE"/>
<path d="M72.3584 55.4784H128.642C133.982 55.4784 138.289 59.7857 138.289 65.1268V79.5995C138.289 84.9405 133.982 89.2479 128.642 89.2479H72.3584C67.0176 89.2479 62.7106 84.9405 62.7106 79.5995V65.1268C62.7106 59.7857 67.0176 55.4784 72.3584 55.4784Z" fill="#FEC03E"/>
<path d="M62.7107 79.5995V66.7305H52.2545C50.9292 66.7305 49.8425 67.8172 49.8425 69.1426V90.8515L62.7107 86.8358V79.5995Z" fill="white"/>
<path d="M138.289 66.7305V86.8358L151.158 90.8515V69.1426C151.158 67.8172 150.071 66.7305 148.746 66.7305H138.289Z" fill="white"/>
<path d="M138.289 77.2272V98.2867C138.289 100.367 138.117 102.448 137.773 104.503C145.101 104.343 150.985 98.4325 151.131 91.1167C151.277 83.7876 145.605 77.6645 138.289 77.2272Z" fill="#E4E4E4"/>
<path d="M62.7107 77.2272V98.2867C62.7107 100.367 62.883 102.448 63.2275 104.503C55.8989 104.357 49.9883 98.4458 49.8558 91.1167C49.7233 83.7876 55.3953 77.6513 62.7107 77.2272Z" fill="#E4E4E4"/>
<path d="M151.158 66.7305H138.289V77.9825H151.158V66.7305Z" fill="white"/>
<path d="M62.7107 66.7305H49.8425V77.9825H62.7107V66.7305Z" fill="white"/>
<path d="M64.3142 20.9005C64.3142 27.1163 59.2783 32.1526 53.0629 32.1526C46.8475 32.1526 41.8115 27.1163 41.8115 20.9005C41.8115 14.6847 46.8475 9.64844 53.0629 9.64844C59.2783 9.64844 64.3142 14.6847 64.3142 20.9005Z" fill="#FEC03E"/>
<path d="M141.497 9.64844H154.365C157.042 9.64844 159.189 11.7955 159.189 14.4726V27.3416C159.189 30.0188 157.042 32.1658 154.365 32.1658H141.497C138.82 32.1658 136.673 30.0188 136.673 27.3416V14.4726C136.673 11.7955 138.82 9.64844 141.497 9.64844Z" fill="#FEC03E"/>
<path d="M111.268 35.8105L104.005 22.9415C103.29 21.6825 101.951 20.9005 100.507 20.9005C99.0621 20.9005 97.7236 21.6825 97.008 22.9415L89.7457 35.8105C89.0433 37.0563 89.0565 38.5805 89.7722 39.813C90.4878 41.0456 91.813 41.801 93.2443 41.801H107.769C109.2 41.801 110.526 41.0456 111.241 39.813C111.957 38.5805 111.97 37.0563 111.268 35.8105Z" fill="#FEC03E"/>
<path d="M100.493 109.128C97.3923 109.035 94.4635 107.71 92.3563 105.43C91.4154 104.489 91.4154 102.965 92.3563 102.011C93.2973 101.07 94.8213 101.07 95.7755 102.011C98.8633 105.099 102.137 105.099 105.224 102.011C107.504 99.7313 110.91 103.151 108.644 105.43C106.536 107.71 103.608 109.035 100.507 109.128H100.493Z" fill="white"/>
</g>
<defs>
<clipPath id="clip0_75_160">
<rect width="201" height="201" fill="white"/>
</clipPath>
</defs>
</svg>
