<svg width="650" height="510" viewBox="0 0 650 510" fill="none" xmlns="http://www.w3.org/2000/svg">
<path d="M330.763 392.386C304.792 408.796 275.359 418.938 244.792 422.008C214.225 425.079 183.362 420.995 154.646 410.079C125.93 399.163 100.148 381.715 79.3389 359.115C58.5301 336.515 43.2656 309.382 34.7531 279.864C26.2405 250.346 24.7133 219.252 30.2924 189.042C35.8715 158.832 48.4037 130.335 66.8977 105.804C85.3917 81.2735 109.34 61.3829 136.848 47.7056C164.357 34.0283 194.67 26.9397 225.391 27.0004L225 225L330.763 392.386Z" fill="#24C38E"/>
<path d="M225 0C273.724 5.81025e-07 321.131 15.8162 360.095 45.0709C399.058 74.3257 427.473 115.438 441.066 162.227C454.66 209.016 452.698 258.953 435.475 304.532C418.252 350.11 386.7 388.866 345.561 414.974L225 225V0Z" fill="url(#paint0_linear_75_78)"/>
<g filter="url(#filter0_d_75_78)">
<circle cx="225" cy="225" r="135" fill="white"/>
</g>
<circle opacity="0.05" cx="225" cy="225" r="119" stroke="#454459" stroke-width="2"/>
<path d="M73.54 488.51L90.01 487.97C90.07 486.44 90.07 485 90.07 483.59V483.53H74.32V480.38H93.97V483.59C93.97 487.61 93.97 491.42 92.68 497.42L88.78 497.03C89.32 494.78 89.62 492.77 89.8 490.91L74.02 491.72L73.54 488.51ZM71.53 499.07H96.49V502.31H71.53V499.07ZM104.618 490.97V495.95C108.818 495.92 112.298 495.71 116.198 495.05L116.618 498.26C112.118 499.04 108.068 499.22 103.058 499.22H100.568V487.85H109.538V483.44H100.538V480.29H113.588V490.97H104.618ZM118.118 477.92H122.078V505.64H118.118V477.92ZM132.905 496.25C134.435 496.25 135.305 494.18 135.305 489.92C135.305 485.69 134.435 483.62 132.905 483.62C131.405 483.62 130.505 485.69 130.505 489.92C130.505 494.18 131.405 496.25 132.905 496.25ZM141.035 488.12V478.4H144.725V504.35H141.035V491.33H138.875C138.515 496.73 136.265 499.97 132.905 499.97C129.245 499.97 126.935 496.19 126.935 489.92C126.935 483.68 129.245 479.9 132.905 479.9C136.175 479.9 138.395 482.96 138.845 488.12H141.035ZM146.645 477.92H150.395V505.55H146.645V477.92ZM173.223 477.92H177.183V505.64H173.223V477.92ZM162.333 479.87C166.503 479.87 169.593 483.65 169.593 489.71C169.593 495.8 166.503 499.61 162.333 499.61C158.163 499.61 155.073 495.8 155.073 489.71C155.073 483.65 158.163 479.87 162.333 479.87ZM162.333 483.44C160.293 483.44 158.883 485.63 158.883 489.71C158.883 493.82 160.293 496.01 162.333 496.01C164.373 496.01 165.783 493.82 165.783 489.71C165.783 485.63 164.373 483.44 162.333 483.44ZM187.081 491.03V496.19C190.801 496.16 193.831 496.01 197.221 495.47L197.581 498.65C193.591 499.28 190.051 499.37 185.401 499.37H183.151V480.26H195.931V483.44H187.081V487.94H195.001V491.03H187.081ZM201.121 477.92H205.081V505.64H201.121V490.85H196.381V487.67H201.121V477.92Z" fill="#F38B01"/>
<path d="M220.174 484.34V496.1C222.754 496.04 225.094 495.89 227.734 495.41L228.034 498.62C224.674 499.25 221.734 499.37 218.194 499.37H216.274V481.13H226.504V484.34H220.174ZM235.444 477.92H239.194V505.58H235.444V491.75H232.954V504.29H229.264V478.46H232.954V488.57H235.444V477.92ZM259.382 490.19L257.312 493.25C254.402 492.29 252.392 490.43 251.222 488.09C250.022 490.79 247.892 492.92 244.742 494.03L242.672 490.91C247.292 489.38 249.152 485.69 249.152 481.94V479.45H253.172V482.27C253.172 485.6 255.032 488.84 259.382 490.19ZM255.812 502.52C259.322 502.52 261.212 501.8 261.212 500.24C261.212 498.71 259.322 497.99 255.812 497.99C252.272 497.99 250.382 498.71 250.382 500.24C250.382 501.8 252.272 502.52 255.812 502.52ZM255.812 494.93C261.542 494.93 265.142 496.91 265.142 500.24C265.142 503.6 261.542 505.58 255.812 505.58C250.052 505.58 246.452 503.6 246.452 500.24C246.452 496.91 250.052 494.93 255.812 494.93ZM264.842 484.37H268.502V487.64H264.842V494.3H260.882V477.98H264.842V484.37ZM289.829 491.99V485.15H284.789V482H289.829V477.95H293.789V491.99H289.829ZM287.189 488.63L285.179 491.66C282.269 490.73 280.229 488.9 279.059 486.59C277.829 489.17 275.669 491.21 272.519 492.2L270.479 489.11C275.069 487.73 276.989 484.34 276.989 480.83V478.85H280.979V480.83C280.979 484.1 282.869 487.31 287.189 488.63ZM279.509 502.19H294.569V505.25H275.609V497.72H289.889V496.19H275.579V493.16H293.789V500.57H279.509V502.19ZM316.197 486.29V482.21H305.247V486.29H316.197ZM320.097 479.12V489.41H301.347V479.12H320.097ZM305.127 497.09V501.95H320.517V505.1H301.167V497.09H305.127ZM298.257 491.6H323.277V494.72H313.107V499.43H309.147V494.72H298.257V491.6ZM328.405 494.27L326.875 491.15C332.665 490.25 335.875 486.8 336.235 483.2H327.955V480.05H348.775V483.2H340.495C340.855 486.8 344.065 490.13 350.005 491L348.505 494.12C343.645 493.25 340.135 490.94 338.395 487.7C336.685 491 333.205 493.4 328.405 494.27ZM340.375 499.16H350.905V502.37H325.885V499.16H336.415V493.07H340.375V499.16ZM363.652 480.08V484.1C363.652 489.08 365.602 494.09 370.042 496.28L367.642 499.4C364.762 497.93 362.812 495.26 361.672 491.96C360.472 495.47 358.402 498.38 355.282 499.91L352.912 496.7C357.562 494.51 359.662 489.23 359.662 484.1V480.08H363.652ZM379.132 488.57V491.87H375.112V505.58H371.152V477.95H375.112V488.57H379.132Z" fill="#E3E3E3"/>
<path d="M213.2 229.12H208.64V235H202.32V229.12H187.24V224.76L200.44 207H207.24L195 223.84H202.52V218.6H208.64V223.84H213.2V229.12ZM224.923 207V235H218.442V212.2H212.843V207H224.923ZM236.267 222.12C234.213 222.12 232.533 221.427 231.227 220.04C229.947 218.627 229.307 216.747 229.307 214.4C229.307 212.053 229.947 210.187 231.227 208.8C232.533 207.387 234.213 206.68 236.267 206.68C238.32 206.68 239.987 207.387 241.267 208.8C242.547 210.187 243.187 212.053 243.187 214.4C243.187 216.747 242.547 218.627 241.267 220.04C239.987 221.427 238.32 222.12 236.267 222.12ZM252.947 207H257.707L238.587 235H233.827L252.947 207ZM236.267 218.84C237.173 218.84 237.88 218.467 238.387 217.72C238.92 216.973 239.187 215.867 239.187 214.4C239.187 212.933 238.92 211.827 238.387 211.08C237.88 210.333 237.173 209.96 236.267 209.96C235.387 209.96 234.68 210.347 234.147 211.12C233.613 211.867 233.347 212.96 233.347 214.4C233.347 215.84 233.613 216.947 234.147 217.72C234.68 218.467 235.387 218.84 236.267 218.84ZM255.267 235.32C253.933 235.32 252.733 235.013 251.667 234.4C250.627 233.76 249.813 232.853 249.227 231.68C248.64 230.507 248.347 229.147 248.347 227.6C248.347 226.053 248.64 224.693 249.227 223.52C249.813 222.347 250.627 221.453 251.667 220.84C252.733 220.2 253.933 219.88 255.267 219.88C257.32 219.88 258.987 220.587 260.267 222C261.573 223.387 262.227 225.253 262.227 227.6C262.227 229.947 261.573 231.827 260.267 233.24C258.987 234.627 257.32 235.32 255.267 235.32ZM255.267 232.04C256.173 232.04 256.88 231.667 257.387 230.92C257.92 230.147 258.187 229.04 258.187 227.6C258.187 226.16 257.92 225.067 257.387 224.32C256.88 223.547 256.173 223.16 255.267 223.16C254.387 223.16 253.68 223.533 253.147 224.28C252.613 225.027 252.347 226.133 252.347 227.6C252.347 229.067 252.613 230.173 253.147 230.92C253.68 231.667 254.387 232.04 255.267 232.04Z" fill="#FF9900"/>
<path d="M527.883 14.1H531.483V8.48H533.543V21.86H531.483V15.8H527.883V14.1ZM519.823 9.9H527.943C527.943 14.76 525.683 18.22 519.783 20.16L518.943 18.52C521.783 17.62 523.583 16.4 524.623 14.9L519.243 15.3L518.923 13.66L525.403 13.4C525.583 12.82 525.723 12.2 525.783 11.56H519.823V9.9ZM524.083 24.52H534.063V26.2H522.003V20.56H524.083V24.52ZM552.062 8.48V22.02H550.102V8.48H552.062ZM546.622 21.58V15.18H544.482V13.5H546.622V8.84H548.542V21.58H546.622ZM545.102 17.14L545.302 18.78C543.242 19.16 541.522 19.22 538.722 19.22H537.542V9.94H544.362V11.6H539.522V13.72H543.682V15.32H539.522V17.58C541.802 17.56 543.322 17.48 545.102 17.14ZM542.302 24.52H552.562V26.2H540.222V20.54H542.302V24.52ZM556.54 19.94L555.76 18.24C559.52 17.68 562 15.42 562.1 12.86H556.44V11.18H562.12V8.84H564.18V11.18H569.84V12.86H564.2C564.3 15.42 566.78 17.68 570.54 18.24L569.76 19.94C566.72 19.4 564.32 17.9 563.14 15.78C561.96 17.9 559.56 19.4 556.54 19.94ZM554.98 22.64H571.34V24.34H554.98V22.64ZM585.439 11.56V10.34H575.219V8.92H587.479V12.9H577.279V14.18H587.799V15.62H575.259V11.56H585.439ZM577.139 23.54V24.92H588.079V26.34H575.099V22.2H585.499V20.92H575.059V19.5H587.539V23.54H577.139ZM573.159 16.76H589.539V18.28H573.159V16.76ZM608.449 8.46H610.529V26.58H608.449V8.46ZM600.909 9.8C603.609 9.8 605.569 12.28 605.569 16.16C605.569 20.08 603.609 22.54 600.909 22.54C598.229 22.54 596.269 20.08 596.269 16.16C596.269 12.28 598.229 9.8 600.909 9.8ZM600.909 11.66C599.349 11.66 598.249 13.36 598.249 16.16C598.249 19 599.349 20.7 600.909 20.7C602.489 20.7 603.589 19 603.589 16.16C603.589 13.36 602.489 11.66 600.909 11.66ZM621.988 24.96C624.628 24.96 626.128 24.4 626.128 23.3C626.128 22.22 624.628 21.64 621.988 21.64C619.348 21.64 617.868 22.22 617.868 23.3C617.868 24.4 619.348 24.96 621.988 24.96ZM621.988 20.06C625.888 20.06 628.208 21.24 628.208 23.3C628.208 25.38 625.888 26.54 621.988 26.54C618.108 26.54 615.768 25.38 615.768 23.3C615.768 21.24 618.108 20.06 621.988 20.06ZM619.788 15.42V17.26H624.228V15.42C623.568 15.52 622.828 15.58 622.028 15.58C621.228 15.58 620.448 15.52 619.788 15.42ZM622.028 10.38C619.328 10.38 617.708 11.02 617.708 12.18C617.708 13.34 619.328 14 622.028 14C624.708 14 626.328 13.34 626.328 12.18C626.328 11.02 624.708 10.38 622.028 10.38ZM626.288 17.26H630.188V18.9H613.848V17.26H617.728V14.86C616.368 14.28 615.588 13.36 615.588 12.18C615.588 10.06 618.068 8.78 622.028 8.78C625.968 8.78 628.468 10.06 628.468 12.18C628.468 13.36 627.668 14.28 626.288 14.88V17.26ZM636.466 20.78C637.686 20.78 638.546 19.8 638.546 18.3C638.546 16.8 637.686 15.8 636.466 15.8C635.246 15.8 634.386 16.8 634.386 18.3C634.386 19.8 635.246 20.78 636.466 20.78ZM636.466 14.1C638.746 14.1 640.386 15.8 640.386 18.3C640.386 20.78 638.746 22.5 636.466 22.5C634.186 22.5 632.546 20.78 632.546 18.3C632.546 15.8 634.186 14.1 636.466 14.1ZM637.486 9V11.42H640.866V13.08H632.026V11.42H635.446V9H637.486ZM645.486 8.48H647.446V26.54H645.486V17.66H643.566V25.7H641.646V8.86H643.566V15.96H645.486V8.48ZM534.203 47.14L533.403 48.8C530.403 48.32 527.943 46.8 526.763 44.72C525.603 46.82 523.103 48.32 520.103 48.8L519.303 47.14C522.983 46.62 525.663 44.4 525.663 42.02V41.06H527.843V42.02C527.843 44.36 530.563 46.62 534.203 47.14ZM534.903 50.5V52.18H527.723V58.56H525.663V52.18H518.583V50.5H534.903ZM539.482 52.08H551.662V58.56H549.602V53.76H539.482V52.08ZM549.602 40.48H551.662V51.16H549.602V40.48ZM541.922 41.52C544.662 41.52 546.702 43.3 546.702 45.86C546.702 48.42 544.662 50.2 541.922 50.2C539.162 50.2 537.122 48.42 537.122 45.86C537.122 43.3 539.162 41.52 541.922 41.52ZM541.922 43.26C540.302 43.26 539.142 44.28 539.142 45.86C539.142 47.44 540.302 48.46 541.922 48.46C543.522 48.46 544.702 47.44 544.702 45.86C544.702 44.28 543.522 43.26 541.922 43.26ZM565.82 42.56V44.22H555.08V42.56H559.44V40.54H561.5V42.56H565.82ZM558.08 48.5C558.08 49.6 559.06 50.28 560.48 50.28C561.9 50.28 562.86 49.6 562.86 48.5C562.86 47.38 561.9 46.7 560.48 46.7C559.06 46.7 558.08 47.38 558.08 48.5ZM561.5 51.78V53.46C563.04 53.38 564.58 53.28 566.02 53.06L566.18 54.58C562.32 55.26 558.14 55.3 555.04 55.3L554.76 53.6C556.14 53.6 557.76 53.6 559.44 53.54V51.78C557.44 51.44 556.14 50.22 556.14 48.5C556.14 46.46 557.9 45.12 560.48 45.12C563.04 45.12 564.8 46.46 564.8 48.5C564.8 50.22 563.5 51.46 561.5 51.78ZM571.66 48.02V49.72H569.1V58.54H567.04V40.46H569.1V48.02H571.66ZM578.439 52.96C579.899 52.96 580.959 51.96 580.959 50.44C580.959 48.92 579.899 47.92 578.439 47.92C576.979 47.92 575.919 48.92 575.919 50.44C575.919 51.96 576.979 52.96 578.439 52.96ZM578.439 46.22C581.019 46.22 582.919 47.98 582.919 50.44C582.919 52.92 581.019 54.66 578.439 54.66C575.839 54.66 573.959 52.92 573.959 50.44C573.959 47.98 575.839 46.22 578.439 46.22ZM579.439 40.76V43.26H583.659V44.94H573.079V43.26H577.379V40.76H579.439ZM589.979 47.74V49.46H587.199V58.56H585.119V40.48H587.199V47.74H589.979ZM603.857 43.94V43.84H593.077V42.16H605.937V43.94C605.937 46.18 605.937 48.68 605.237 52.42L603.157 52.2C603.857 48.66 603.857 46.1 603.857 43.94ZM599.537 54.48H607.697V56.18H591.377V54.48H597.457V48.12H599.537V54.48ZM628.748 40.5V50.5H626.688V40.5H628.748ZM624.848 48.26L623.868 49.86C621.768 49.22 620.248 47.84 619.428 46.06C618.608 47.96 617.068 49.48 614.888 50.2L613.868 48.58C616.708 47.64 618.348 45.3 618.348 42.88V41.12H620.448V42.88C620.448 45.22 622.068 47.38 624.848 48.26ZM621.048 53.12V56.68H624.508V53.12H621.048ZM626.548 56.68H629.048V58.32H616.508V56.68H619.008V53.12H616.688V51.48H628.848V53.12H626.548V56.68ZM634.846 43.86V52.4C637.766 52.38 639.966 52.26 642.486 51.82L642.706 53.52C639.966 54.02 637.526 54.12 634.266 54.12H632.786V42.18H641.186V43.86H634.846ZM648.866 47.42V49.12H646.046V58.56H643.986V40.46H646.046V47.42H648.866Z" fill="#FFE14A"/>
<path d="M350 69.473L401.961 17.5118H485.379" stroke="#FFE24B" stroke-width="2" stroke-miterlimit="10"/>
<circle cx="478.563" cy="18" r="7" fill="#FFE24B"/>
<defs>
<filter id="filter0_d_75_78" x="65" y="70" width="320" height="320" filterUnits="userSpaceOnUse" color-interpolation-filters="sRGB">
<feFlood flood-opacity="0" result="BackgroundImageFix"/>
<feColorMatrix in="SourceAlpha" type="matrix" values="0 0 0 0 0 0 0 0 0 0 0 0 0 0 0 0 0 0 127 0" result="hardAlpha"/>
<feOffset dy="5"/>
<feGaussianBlur stdDeviation="12.5"/>
<feColorMatrix type="matrix" values="0 0 0 0 0 0 0 0 0 0 0 0 0 0 0 0 0 0 0.1 0"/>
<feBlend mode="normal" in2="BackgroundImageFix" result="effect1_dropShadow_75_78"/>
<feBlend mode="normal" in="SourceGraphic" in2="effect1_dropShadow_75_78" result="shape"/>
</filter>
<linearGradient id="paint0_linear_75_78" x1="515" y1="-27.5" x2="319" y2="316.5" gradientUnits="userSpaceOnUse">
<stop stop-color="#F2E254"/>
<stop offset="1" stop-color="#FEC03E"/>
</linearGradient>
</defs>
</svg>
