<svg width="650" height="503" viewBox="0 0 650 503" fill="none" xmlns="http://www.w3.org/2000/svg">
<path d="M416.777 274.251C407.562 310.131 388.467 342.706 361.662 368.274C334.857 393.842 301.416 411.378 265.141 418.888C228.867 426.398 191.213 423.582 156.459 410.758C121.705 397.935 91.2458 375.619 68.5428 346.347C45.8398 317.075 31.8038 282.022 28.0301 245.171C24.2564 208.319 30.8963 171.148 47.1952 137.883C63.4941 104.617 88.7982 76.5906 120.232 56.9894C151.665 37.3881 187.967 26.998 225.011 27L225 225L416.777 274.251Z" fill="url(#paint0_linear_75_77)"/>
<path d="M225 0C259.313 4.09182e-07 293.172 7.84804 323.986 22.9438C354.801 38.0396 381.754 59.9831 402.785 87.0959C423.816 114.209 438.367 145.773 445.325 179.373C452.283 212.973 451.465 247.72 442.931 280.955L225 225V0Z" fill="url(#paint1_linear_75_77)"/>
<g filter="url(#filter0_d_75_77)">
<circle cx="225" cy="225" r="135" fill="white"/>
</g>
<circle opacity="0.05" cx="225" cy="225" r="119" stroke="#454459" stroke-width="2"/>
<path d="M338 69.473L389.961 17.5118H473.379" stroke="#FF79A8" stroke-width="2" stroke-miterlimit="10"/>
<circle cx="466.563" cy="18" r="7" fill="url(#paint2_linear_75_77)"/>
<path d="M208.48 229.72V235H187.32V230.8L198.12 220.6C199.267 219.507 200.04 218.573 200.44 217.8C200.84 217 201.04 216.213 201.04 215.44C201.04 214.32 200.653 213.467 199.88 212.88C199.133 212.267 198.027 211.96 196.56 211.96C195.333 211.96 194.227 212.2 193.24 212.68C192.253 213.133 191.427 213.827 190.76 214.76L186.04 211.72C187.133 210.093 188.64 208.827 190.56 207.92C192.48 206.987 194.68 206.52 197.16 206.52C199.24 206.52 201.053 206.867 202.6 207.56C204.173 208.227 205.387 209.187 206.24 210.44C207.12 211.667 207.56 213.12 207.56 214.8C207.56 216.32 207.24 217.747 206.6 219.08C205.96 220.413 204.72 221.933 202.88 223.64L196.44 229.72H208.48ZM220.994 206.52C224.914 206.52 227.98 207.72 230.194 210.12C232.407 212.493 233.514 215.92 233.514 220.4C233.514 223.573 232.914 226.293 231.714 228.56C230.54 230.827 228.874 232.547 226.714 233.72C224.554 234.893 222.06 235.48 219.234 235.48C217.74 235.48 216.314 235.32 214.954 235C213.594 234.653 212.434 234.173 211.474 233.56L213.874 228.8C215.234 229.733 216.98 230.2 219.114 230.2C221.487 230.2 223.367 229.507 224.754 228.12C226.14 226.707 226.887 224.68 226.994 222.04C225.314 223.72 222.994 224.56 220.034 224.56C218.247 224.56 216.62 224.2 215.154 223.48C213.687 222.76 212.527 221.747 211.674 220.44C210.82 219.107 210.394 217.573 210.394 215.84C210.394 213.973 210.86 212.333 211.794 210.92C212.727 209.507 213.994 208.427 215.594 207.68C217.22 206.907 219.02 206.52 220.994 206.52ZM221.474 219.72C222.887 219.72 224.034 219.333 224.914 218.56C225.82 217.76 226.274 216.747 226.274 215.52C226.274 214.293 225.834 213.293 224.954 212.52C224.1 211.747 222.914 211.36 221.394 211.36C220.007 211.36 218.874 211.733 217.994 212.48C217.14 213.227 216.714 214.24 216.714 215.52C216.714 216.8 217.14 217.827 217.994 218.6C218.874 219.347 220.034 219.72 221.474 219.72ZM243.103 222.12C241.049 222.12 239.369 221.427 238.063 220.04C236.783 218.627 236.143 216.747 236.143 214.4C236.143 212.053 236.783 210.187 238.063 208.8C239.369 207.387 241.049 206.68 243.103 206.68C245.156 206.68 246.823 207.387 248.103 208.8C249.383 210.187 250.023 212.053 250.023 214.4C250.023 216.747 249.383 218.627 248.103 220.04C246.823 221.427 245.156 222.12 243.103 222.12ZM259.783 207H264.543L245.423 235H240.663L259.783 207ZM243.103 218.84C244.009 218.84 244.716 218.467 245.223 217.72C245.756 216.973 246.023 215.867 246.023 214.4C246.023 212.933 245.756 211.827 245.223 211.08C244.716 210.333 244.009 209.96 243.103 209.96C242.223 209.96 241.516 210.347 240.983 211.12C240.449 211.867 240.183 212.96 240.183 214.4C240.183 215.84 240.449 216.947 240.983 217.72C241.516 218.467 242.223 218.84 243.103 218.84ZM262.103 235.32C260.769 235.32 259.569 235.013 258.503 234.4C257.463 233.76 256.649 232.853 256.063 231.68C255.476 230.507 255.183 229.147 255.183 227.6C255.183 226.053 255.476 224.693 256.063 223.52C256.649 222.347 257.463 221.453 258.503 220.84C259.569 220.2 260.769 219.88 262.103 219.88C264.156 219.88 265.823 220.587 267.103 222C268.409 223.387 269.063 225.253 269.063 227.6C269.063 229.947 268.409 231.827 267.103 233.24C265.823 234.627 264.156 235.32 262.103 235.32ZM262.103 232.04C263.009 232.04 263.716 231.667 264.223 230.92C264.756 230.147 265.023 229.04 265.023 227.6C265.023 226.16 264.756 225.067 264.223 224.32C263.716 223.547 263.009 223.16 262.103 223.16C261.223 223.16 260.516 223.533 259.983 224.28C259.449 225.027 259.183 226.133 259.183 227.6C259.183 229.067 259.449 230.173 259.983 230.92C260.516 231.667 261.223 232.04 262.103 232.04Z" fill="#FD3F9A"/>
<path d="M123.588 484.3V487.48H112.968V498.58H108.948V487.48H98.6276V484.3H116.028C116.718 480.79 116.778 478.09 116.778 475.72H101.478V472.54H120.648V475.03C120.648 477.61 120.648 480.43 119.958 484.3H123.588ZM128.955 492.43V489.31H148.245V498.67H144.285V492.43H128.955ZM140.655 484.3H151.185V487.45H126.225V484.3H136.695V481.9H129.255V472.06H148.215V475.18H133.185V478.78H148.455V481.9H140.655V484.3ZM163.933 476.86V478.39C163.933 482.59 166.123 487.48 170.653 489.58L168.463 492.7C165.403 491.29 163.243 488.53 162.013 485.26C160.783 488.86 158.563 491.89 155.413 493.39L153.193 490.24C157.723 488.14 159.973 482.95 159.973 478.39V476.86H154.243V473.59H169.423V476.86H163.933ZM179.443 481.48V484.75H175.423V498.58H171.463V470.95H175.423V481.48H179.443Z" fill="#FF71A7"/>
<path d="M192.076 477.34V489.1C194.656 489.04 196.996 488.89 199.636 488.41L199.936 491.62C196.576 492.25 193.636 492.37 190.096 492.37H188.176V474.13H198.406V477.34H192.076ZM207.346 470.92H211.096V498.58H207.346V484.75H204.856V497.29H201.166V471.46H204.856V481.57H207.346V470.92ZM231.284 483.19L229.214 486.25C226.304 485.29 224.294 483.43 223.124 481.09C221.924 483.79 219.794 485.92 216.644 487.03L214.574 483.91C219.194 482.38 221.054 478.69 221.054 474.94V472.45H225.074V475.27C225.074 478.6 226.934 481.84 231.284 483.19ZM227.714 495.52C231.224 495.52 233.114 494.8 233.114 493.24C233.114 491.71 231.224 490.99 227.714 490.99C224.174 490.99 222.284 491.71 222.284 493.24C222.284 494.8 224.174 495.52 227.714 495.52ZM227.714 487.93C233.444 487.93 237.044 489.91 237.044 493.24C237.044 496.6 233.444 498.58 227.714 498.58C221.954 498.58 218.354 496.6 218.354 493.24C218.354 489.91 221.954 487.93 227.714 487.93ZM236.744 477.37H240.404V480.64H236.744V487.3H232.784V470.98H236.744V477.37ZM261.732 484.99V478.15H256.692V475H261.732V470.95H265.692V484.99H261.732ZM259.092 481.63L257.082 484.66C254.172 483.73 252.132 481.9 250.962 479.59C249.732 482.17 247.572 484.21 244.422 485.2L242.382 482.11C246.972 480.73 248.892 477.34 248.892 473.83V471.85H252.882V473.83C252.882 477.1 254.772 480.31 259.092 481.63ZM251.412 495.19H266.472V498.25H247.512V490.72H261.792V489.19H247.482V486.16H265.692V493.57H251.412V495.19ZM288.099 479.29V475.21H277.149V479.29H288.099ZM291.999 472.12V482.41H273.249V472.12H291.999ZM277.029 490.09V494.95H292.419V498.1H273.069V490.09H277.029ZM270.159 484.6H295.179V487.72H285.009V492.43H281.049V487.72H270.159V484.6ZM300.307 487.27L298.777 484.15C304.567 483.25 307.777 479.8 308.137 476.2H299.857V473.05H320.677V476.2H312.397C312.757 479.8 315.967 483.13 321.907 484L320.407 487.12C315.547 486.25 312.037 483.94 310.297 480.7C308.587 484 305.107 486.4 300.307 487.27ZM312.277 492.16H322.807V495.37H297.787V492.16H308.317V486.07H312.277V492.16ZM335.555 473.08V477.1C335.555 482.08 337.505 487.09 341.945 489.28L339.545 492.4C336.665 490.93 334.715 488.26 333.575 484.96C332.375 488.47 330.305 491.38 327.185 492.91L324.815 489.7C329.465 487.51 331.565 482.23 331.565 477.1V473.08H335.555ZM351.035 481.57V484.87H347.015V498.58H343.055V470.95H347.015V481.57H351.035Z" fill="#E3E3E3"/>
<path d="M490.88 10.56V20.22C492.48 20.18 494.22 20.04 496.18 19.68L496.4 21.44C493.98 21.88 491.9 21.98 490.02 21.98H488.82V10.56H490.88ZM501.42 8.48H503.38V26.54H501.42V17.36H499.28V25.64H497.34V8.84H499.28V15.66H501.42V8.48ZM507.098 10.38H515.478C515.478 15.62 513.238 20.26 507.338 23.24L506.198 21.66C510.618 19.4 512.998 16.22 513.418 12.06H507.098V10.38ZM522.938 15.6V17.32H520.198V26.52H518.138V8.46H520.198V15.6H522.938ZM530.129 14.94L529.489 13.38C532.729 13.14 535.069 12 535.429 10.58H530.189V9H543.549V10.58H538.289C538.649 12 540.989 13.14 544.249 13.38L543.589 14.94C540.369 14.68 537.829 13.52 536.869 11.78C535.909 13.52 533.369 14.68 530.129 14.94ZM536.849 25.24C539.029 25.24 540.189 24.92 540.189 24.24C540.189 23.56 539.029 23.24 536.849 23.24C534.669 23.24 533.509 23.56 533.509 24.24C533.509 24.92 534.669 25.24 536.849 25.24ZM536.849 21.86C540.329 21.86 542.309 22.66 542.309 24.24C542.309 25.82 540.329 26.62 536.849 26.62C533.349 26.62 531.369 25.82 531.369 24.24C531.369 22.66 533.349 21.86 536.849 21.86ZM537.889 18.06V19.56H543.529V21.14H530.189V19.56H535.809V18.06H537.889ZM537.869 15.78H545.069V17.42H528.689V15.78H535.809V13.86H537.869V15.78ZM551.708 20.7C553.268 20.7 554.368 19 554.368 16.18C554.368 13.36 553.268 11.66 551.708 11.66C550.128 11.66 549.048 13.36 549.048 16.18C549.048 19 550.128 20.7 551.708 20.7ZM551.708 9.8C554.408 9.8 556.348 12.28 556.348 16.18C556.348 20.08 554.408 22.54 551.708 22.54C549.008 22.54 547.068 20.08 547.068 16.18C547.068 12.28 549.008 9.8 551.708 9.8ZM563.708 15.54V17.24H560.888V26.56H558.828V8.48H560.888V15.54H563.708ZM570.366 20.96C571.826 20.96 572.886 19.96 572.886 18.44C572.886 16.92 571.826 15.92 570.366 15.92C568.906 15.92 567.846 16.92 567.846 18.44C567.846 19.96 568.906 20.96 570.366 20.96ZM570.366 14.22C572.946 14.22 574.846 15.98 574.846 18.44C574.846 20.92 572.946 22.66 570.366 22.66C567.766 22.66 565.886 20.92 565.886 18.44C565.886 15.98 567.766 14.22 570.366 14.22ZM571.366 8.76V11.26H575.586V12.94H565.006V11.26H569.306V8.76H571.366ZM581.906 15.74V17.46H579.126V26.56H577.046V8.48H579.126V15.74H581.906ZM597.804 13.66V15.34H585.404V9.12H587.464V13.66H597.804ZM587.344 20.82V24.48H597.904V26.14H585.284V20.82H587.344ZM583.284 17.5H599.684V19.16H583.284V17.5ZM489.42 47.6L500.44 47.18C500.48 46.22 500.48 45.3 500.48 44.38V43.86H489.92V42.2H502.5V44.38C502.5 47 502.5 49.48 501.7 53.28L499.66 53.1C500.04 51.48 500.24 50.06 500.34 48.74L489.68 49.28L489.42 47.6ZM488.02 54.5H504.34V56.2H488.02V54.5ZM509.318 48.78V52.58C512.178 52.56 514.678 52.42 517.538 51.96L517.758 53.64C514.658 54.18 511.958 54.28 508.778 54.28H507.238V47.12H513.538V43.76H507.198V42.08H515.618V48.78H509.318ZM519.038 40.44H521.118V58.58H519.038V40.44ZM528.477 52.76C529.717 52.76 530.477 51.14 530.477 48.28C530.477 45.42 529.717 43.82 528.477 43.82C527.237 43.82 526.477 45.42 526.477 48.28C526.477 51.14 527.237 52.76 528.477 52.76ZM534.257 47.32V40.82H536.177V57.68H534.257V49.02H532.337C532.157 52.54 530.677 54.7 528.477 54.7C526.137 54.7 524.597 52.24 524.597 48.28C524.597 44.32 526.137 41.88 528.477 41.88C530.637 41.88 532.097 43.94 532.317 47.32H534.257ZM537.877 40.48H539.837V58.52H537.877V40.48ZM555.395 40.46H557.475V58.58H555.395V40.46ZM547.855 41.8C550.555 41.8 552.515 44.28 552.515 48.16C552.515 52.08 550.555 54.54 547.855 54.54C545.175 54.54 543.215 52.08 543.215 48.16C543.215 44.28 545.175 41.8 547.855 41.8ZM547.855 43.66C546.295 43.66 545.195 45.36 545.195 48.16C545.195 51 546.295 52.7 547.855 52.7C549.435 52.7 550.535 51 550.535 48.16C550.535 45.36 549.435 43.66 547.855 43.66ZM563.674 48.76V52.66C566.554 52.64 568.614 52.54 570.974 52.14L571.154 53.8C568.574 54.26 566.314 54.34 563.034 54.34H561.614V42.04H569.994V43.74H563.674V47.12H569.254V48.76H563.674ZM573.734 40.44H575.814V58.56H573.734V48.78H570.274V47.08H573.734V40.44ZM579.892 42.38H588.272C588.272 47.62 586.032 52.26 580.132 55.24L578.992 53.66C583.412 51.4 585.792 48.22 586.212 44.06H579.892V42.38ZM595.732 47.6V49.32H592.992V58.52H590.932V40.46H592.992V47.6H595.732ZM493.5 76.14V77.44C493.5 80.52 494.66 83.64 497.18 85.1L495.98 86.6C494.28 85.6 493.16 83.82 492.52 81.72C491.88 84 490.72 85.94 488.98 87.04L487.74 85.52C490.3 83.92 491.5 80.66 491.5 77.44V76.14H488.32V74.44H496.48V76.14H493.5ZM497.82 78.82V72.82H499.76V89.66H497.82V80.5H495.16V78.82H497.82ZM501.46 72.46H503.42V90.52H501.46V72.46ZM520.018 79.66L517.998 79.44C518.458 77.66 518.478 76.36 518.478 75H508.118V73.34H520.518V74.86C520.518 76.3 520.518 77.8 520.018 79.66ZM514.318 88.96C516.978 88.96 518.578 88.3 518.578 87.16C518.578 86.04 516.978 85.38 514.318 85.38C511.638 85.38 509.998 86.04 509.998 87.16C509.998 88.3 511.638 88.96 514.318 88.96ZM514.318 83.8C518.158 83.8 520.638 85.08 520.638 87.16C520.638 89.26 518.158 90.54 514.318 90.54C510.418 90.54 507.958 89.26 507.958 87.16C507.958 85.08 510.418 83.8 514.318 83.8ZM514.718 80.74H522.518V82.4H506.238V80.74H512.638V77.42H514.718V80.74ZM529.677 84.96C531.137 84.96 532.197 83.96 532.197 82.44C532.197 80.92 531.137 79.92 529.677 79.92C528.217 79.92 527.157 80.92 527.157 82.44C527.157 83.96 528.217 84.96 529.677 84.96ZM529.677 78.22C532.257 78.22 534.157 79.98 534.157 82.44C534.157 84.92 532.257 86.66 529.677 86.66C527.077 86.66 525.197 84.92 525.197 82.44C525.197 79.98 527.077 78.22 529.677 78.22ZM530.677 72.76V75.26H534.897V76.94H524.317V75.26H528.617V72.76H530.677ZM541.217 79.74V81.46H538.437V90.56H536.357V72.48H538.437V79.74H541.217ZM557.115 77.66V79.34H544.715V73.12H546.775V77.66H557.115ZM546.655 84.82V88.48H557.215V90.14H544.595V84.82H546.655ZM542.595 81.5H558.995V83.16H542.595V81.5ZM570.418 74.38H578.978C578.978 79.76 576.818 84.32 570.618 87.32L569.518 85.68C574.258 83.4 576.498 80.22 576.858 76.06H570.418V74.38ZM582.238 72.48H584.298V90.54H582.238V72.48ZM597.497 80.16L597.757 81.82C595.157 82.32 592.897 82.44 590.017 82.44H588.657V73.32H590.717V80.76C593.217 80.74 595.217 80.6 597.497 80.16ZM592.817 85.5V88.68H600.537V85.5H592.817ZM590.797 90.32V83.86H602.557V90.32H590.797ZM600.497 72.48H602.557V83.08H600.497V79.08H595.757V77.48H600.497V75.9H595.757V74.32H600.497V72.48ZM616.015 77.98V74.66H611.855V77.98H616.015ZM609.795 77.98V74.66H607.235V73H620.615V74.66H618.075V77.98H620.515V79.64H607.335V77.98H609.795ZM618.115 88.68V86.22H609.775V88.68H618.115ZM622.115 82.74H614.975V84.58H620.135V90.32H607.735V84.58H612.915V82.74H605.775V81.08H622.115V82.74ZM632.153 74.3C629.353 74.3 627.853 74.84 627.853 75.88C627.853 76.9 629.353 77.44 632.153 77.44C634.953 77.44 636.453 76.9 636.453 75.88C636.453 74.84 634.953 74.3 632.153 74.3ZM632.153 78.98C628.093 78.98 625.713 77.88 625.713 75.88C625.713 73.86 628.093 72.76 632.153 72.76C636.193 72.76 638.593 73.86 638.593 75.88C638.593 77.88 636.193 78.98 632.153 78.98ZM627.993 87.3V88.8H638.793V90.38H625.953V85.84H636.253V84.54H625.913V82.98H638.273V87.3H627.993ZM623.973 80.04H640.333V81.68H623.973V80.04ZM504.36 113.3V115H497.16V122.54H495.08V115H488.02V113.3H499.76C500.28 110.78 500.28 108.9 500.28 107.24H489.98V105.58H502.3V107.16C502.3 108.86 502.3 110.74 501.84 113.3H504.36ZM508.738 108.1V116.2H511.858V108.1H508.738ZM506.818 117.84V106.46H513.778V117.84H506.818ZM519.678 104.48H521.638V122.52H519.678V113.2H517.618V121.68H515.678V104.82H517.618V111.52H519.678V104.48ZM529.677 116.96C531.137 116.96 532.197 115.96 532.197 114.44C532.197 112.92 531.137 111.92 529.677 111.92C528.217 111.92 527.157 112.92 527.157 114.44C527.157 115.96 528.217 116.96 529.677 116.96ZM529.677 110.22C532.257 110.22 534.157 111.98 534.157 114.44C534.157 116.92 532.257 118.66 529.677 118.66C527.077 118.66 525.197 116.92 525.197 114.44C525.197 111.98 527.077 110.22 529.677 110.22ZM530.677 104.76V107.26H534.897V108.94H524.317V107.26H528.617V104.76H530.677ZM541.217 111.74V113.46H538.437V122.56H536.357V104.48H538.437V111.74H541.217ZM555.095 107.94V107.84H544.315V106.16H557.175V107.94C557.175 110.18 557.175 112.68 556.475 116.42L554.395 116.2C555.095 112.66 555.095 110.1 555.095 107.94ZM550.775 118.48H558.935V120.18H542.615V118.48H548.695V112.12H550.775V118.48ZM579.986 104.5V114.5H577.926V104.5H579.986ZM576.086 112.26L575.106 113.86C573.006 113.22 571.486 111.84 570.666 110.06C569.846 111.96 568.306 113.48 566.126 114.2L565.106 112.58C567.946 111.64 569.586 109.3 569.586 106.88V105.12H571.686V106.88C571.686 109.22 573.306 111.38 576.086 112.26ZM572.286 117.12V120.68H575.746V117.12H572.286ZM577.786 120.68H580.286V122.32H567.746V120.68H570.246V117.12H567.926V115.48H580.086V117.12H577.786V120.68ZM586.084 107.86V116.4C589.004 116.38 591.204 116.26 593.724 115.82L593.944 117.52C591.204 118.02 588.764 118.12 585.504 118.12H584.024V106.18H592.424V107.86H586.084ZM600.104 111.42V113.12H597.284V122.56H595.224V104.46H597.284V111.42H600.104Z" fill="#FF71A7"/>
<defs>
<filter id="filter0_d_75_77" x="65" y="70" width="320" height="320" filterUnits="userSpaceOnUse" color-interpolation-filters="sRGB">
<feFlood flood-opacity="0" result="BackgroundImageFix"/>
<feColorMatrix in="SourceAlpha" type="matrix" values="0 0 0 0 0 0 0 0 0 0 0 0 0 0 0 0 0 0 127 0" result="hardAlpha"/>
<feOffset dy="5"/>
<feGaussianBlur stdDeviation="12.5"/>
<feColorMatrix type="matrix" values="0 0 0 0 0 0 0 0 0 0 0 0 0 0 0 0 0 0 0.1 0"/>
<feBlend mode="normal" in2="BackgroundImageFix" result="effect1_dropShadow_75_77"/>
<feBlend mode="normal" in="SourceGraphic" in2="effect1_dropShadow_75_77" result="shape"/>
</filter>
<linearGradient id="paint0_linear_75_77" x1="423" y1="27" x2="27" y2="423" gradientUnits="userSpaceOnUse">
<stop stop-color="#501EFF"/>
<stop offset="1" stop-color="#9E80FE"/>
</linearGradient>
<linearGradient id="paint1_linear_75_77" x1="423.75" y1="26.25" x2="287" y2="183.5" gradientUnits="userSpaceOnUse">
<stop offset="0.0260417" stop-color="#FF92AE"/>
<stop offset="1" stop-color="#FF3D9A"/>
</linearGradient>
<linearGradient id="paint2_linear_75_77" x1="472.747" y1="11.8167" x2="460.263" y2="24.5333" gradientUnits="userSpaceOnUse">
<stop offset="0.0260417" stop-color="#FF92AE"/>
<stop offset="1" stop-color="#FF3D9A"/>
</linearGradient>
</defs>
</svg>
