<svg width="199" height="199" viewBox="0 0 199 199" fill="none" xmlns="http://www.w3.org/2000/svg">
<g clip-path="url(#clip0_75_187)">
<path d="M151.24 82.8882V34.0222C151.24 30.6 149.421 27.4345 146.464 25.7234L104.276 1.28332C101.319 -0.427773 97.6806 -0.427773 94.724 1.28332L52.536 25.7234C49.5794 27.4345 47.76 30.6 47.76 34.0222V82.8882C47.76 86.3103 49.5794 89.4759 52.536 91.1869L94.724 115.627C97.6806 117.338 101.319 117.338 104.276 115.627L146.464 91.1869C149.421 89.4759 151.24 86.3103 151.24 82.8882Z" fill="#FFE048"/>
<path d="M64.9593 98.3878L94.724 115.641C97.6806 117.352 101.319 117.352 104.276 115.641L134.041 98.3878H64.9451H64.9593Z" fill="#FFE048"/>
<path d="M19.104 103.179H179.896C190.486 103.179 199 111.72 199 122.343V179.836C199 190.459 190.486 199 179.896 199H19.104C8.51436 199 0 190.459 0 179.836V122.343C0 111.72 8.51436 103.179 19.104 103.179Z" fill="white"/>
<path d="M38.4923 179.066C37.0424 179.066 35.9337 178.695 35.1661 177.939C34.3986 177.184 34.0148 176.086 34.0148 174.631V123.398H55.8053C61.2778 123.398 65.4852 124.838 68.456 127.733C71.4268 130.628 72.9051 134.435 72.9051 139.14C72.9051 141.792 72.3649 144.017 71.2704 145.799C70.1759 147.582 68.456 149.15 66.1106 150.519C68.5413 151.76 70.4033 153.499 71.6826 155.724C72.9619 157.948 73.6016 160.372 73.6016 162.981C73.6016 167.915 72.0806 171.822 69.0246 174.717C65.9685 177.611 61.8179 179.051 56.5586 179.051H38.4923V179.066ZM59.899 139.539C59.899 137.572 59.4299 136.06 58.4918 135.005C57.5536 133.95 56.4023 133.437 55.0377 133.437H47.0351V145.785H55.0377C56.4023 145.785 57.5536 145.229 58.4918 144.145C59.4299 143.047 59.899 141.522 59.899 139.554V139.539ZM60.6097 162.425C60.6097 160.372 60.1264 158.747 59.1741 157.577C58.2075 156.394 57.0277 155.809 55.6205 155.809H47.0351V169.056H55.6205C57.0277 169.056 58.2217 168.457 59.1741 167.259C60.1406 166.061 60.6097 164.45 60.6097 162.44V162.425Z" fill="#E6E6E6"/>
<path d="M114.269 174.474C110.53 178.182 105.697 180.035 99.7558 180.035C93.8143 180.035 89.0383 178.182 85.2715 174.474C81.5047 170.767 79.6284 166.09 79.6284 160.429V123.341H92.7056V159.987C92.7056 163.21 93.3879 165.676 94.7524 167.416C96.117 169.156 97.7801 170.025 99.7558 170.025C101.732 170.025 103.466 169.156 104.845 167.416C106.238 165.676 106.934 163.21 106.934 159.987V123.341H119.883V160.429C119.883 166.09 118.021 170.767 114.283 174.474H114.269Z" fill="#E6E6E6"/>
<path d="M136.983 179.066V155.923L121.93 123.398H135.519L142.569 140.438C142.782 140.866 142.953 141.379 143.081 141.978C143.209 142.577 143.365 143.119 143.536 143.589C143.706 143.119 143.877 142.577 144.048 141.949C144.218 141.336 144.389 140.809 144.559 140.381L151.354 123.412H164.999L149.946 155.937V174.574C149.946 175.9 149.435 176.984 148.411 177.825C147.388 178.666 146.194 179.08 144.829 179.08H137.011L136.983 179.066Z" fill="#E6E6E6"/>
<path d="M57.295 49.538C57.295 47.5893 58.035 46.0477 59.515 44.913C61.0197 43.7537 63.1533 43.174 65.916 43.174C67.988 43.174 69.727 43.4083 71.133 43.877V49.131C69.653 48.5637 68.173 48.28 66.693 48.28C65.213 48.28 64.214 48.4527 63.696 48.798C63.178 49.1433 62.919 49.612 62.919 50.204V62.377C62.919 62.969 63.104 63.4253 63.474 63.746C63.844 64.042 64.3867 64.19 65.102 64.19C65.842 64.19 66.4093 64.0913 66.804 63.894V55.236H72.206V67.631C70.282 68.667 68.0003 69.185 65.361 69.185C62.7217 69.185 60.7113 68.6423 59.33 67.557C57.9733 66.4717 57.295 64.9423 57.295 62.969V49.538ZM84.1856 49.908C84.1856 48.6747 83.4456 48.058 81.9656 48.058C80.5103 48.058 79.7826 48.6747 79.7826 49.908V62.451C79.7826 63.6843 80.5103 64.301 81.9656 64.301C83.4456 64.301 84.1856 63.6843 84.1856 62.451V49.908ZM74.2326 49.612C74.2326 47.5893 74.8863 45.986 76.1936 44.802C77.5009 43.5933 79.4249 42.989 81.9656 42.989C84.5063 42.989 86.4303 43.5933 87.7376 44.802C89.0696 45.986 89.7356 47.5893 89.7356 49.612V62.747C89.7356 64.7697 89.0696 66.3853 87.7376 67.594C86.4303 68.778 84.5063 69.37 81.9656 69.37C79.4249 69.37 77.5009 68.778 76.1936 67.594C74.8863 66.3853 74.2326 64.7697 74.2326 62.747V49.612ZM101.918 49.908C101.918 48.6747 101.178 48.058 99.6982 48.058C98.2428 48.058 97.5152 48.6747 97.5152 49.908V62.451C97.5152 63.6843 98.2428 64.301 99.6982 64.301C101.178 64.301 101.918 63.6843 101.918 62.451V49.908ZM91.9652 49.612C91.9652 47.5893 92.6188 45.986 93.9262 44.802C95.2335 43.5933 97.1575 42.989 99.6982 42.989C102.239 42.989 104.163 43.5933 105.47 44.802C106.802 45.986 107.468 47.5893 107.468 49.612V62.747C107.468 64.7697 106.802 66.3853 105.47 67.594C104.163 68.778 102.239 69.37 99.6982 69.37C97.1575 69.37 95.2335 68.778 93.9262 67.594C92.6188 66.3853 91.9652 64.7697 91.9652 62.747V49.612ZM119.799 49.279C119.799 48.835 119.688 48.502 119.466 48.28C119.268 48.0333 118.874 47.91 118.282 47.91H115.618V64.227H118.282C119.293 64.227 119.799 63.6597 119.799 62.525V49.279ZM110.068 43.359H119.059C121.057 43.359 122.598 43.84 123.684 44.802C124.794 45.764 125.349 47.1823 125.349 49.057V62.969C125.349 66.9897 123.363 69 119.392 69H110.068V43.359ZM127.02 49.353C127.02 47.3797 127.686 45.8627 129.018 44.802C130.35 43.7167 132.261 43.174 134.753 43.174C137.269 43.174 139.143 43.433 140.377 43.951V49.279C138.872 48.6377 137.158 48.317 135.234 48.317C134.247 48.317 133.581 48.4773 133.236 48.798C132.89 49.094 132.718 49.5257 132.718 50.093V50.648C132.718 51.3387 132.829 51.8567 133.051 52.202C133.297 52.5227 133.815 52.8927 134.605 53.312L138.823 55.68C140.845 56.79 141.857 58.455 141.857 60.675V62.969C141.857 64.967 141.117 66.5087 139.637 67.594C138.157 68.6547 136.072 69.185 133.384 69.185C130.72 69.185 128.709 68.9013 127.353 68.334V62.969C129.03 63.6843 130.929 64.042 133.051 64.042C135.172 64.042 136.233 63.4377 136.233 62.229V61.674C136.233 61.1067 136.109 60.6873 135.863 60.416C135.641 60.12 135.209 59.7993 134.568 59.454L130.609 57.308C128.216 55.976 127.02 54.1013 127.02 51.684V49.353Z" fill="#FEC03E"/>
</g>
<defs>
<clipPath id="clip0_75_187">
<rect width="199" height="199" fill="white"/>
</clipPath>
</defs>
</svg>
