<svg width="100" height="100" viewBox="0 0 100 100" fill="none" xmlns="http://www.w3.org/2000/svg">
<path d="M62.8639 23.921C62.9929 23.976 63.1269 24.002 63.2599 24.002C63.6469 24.002 64.0159 23.775 64.1789 23.398L65.1669 21.102C65.3849 20.594 65.1499 20.006 64.6439 19.788C64.1349 19.573 63.5479 19.806 63.3299 20.311L62.3419 22.607C62.1229 23.114 62.3569 23.702 62.8639 23.921Z" fill="black" stroke="black" stroke-width="2"/>
<path d="M59.287 32.228C59.416 32.283 59.55 32.309 59.683 32.309C60.07 32.309 60.439 32.082 60.602 31.705L62.39 27.552C62.608 27.044 62.373 26.456 61.867 26.238C61.362 26.023 60.771 26.254 60.553 26.761L58.765 30.914C58.546 31.422 58.78 32.01 59.287 32.228Z" fill="black" stroke="black" stroke-width="2"/>
<path d="M24.579 43.158L29.403 45.234C29.532 45.289 29.666 45.315 29.799 45.315C30.186 45.315 30.555 45.088 30.718 44.711C30.936 44.203 30.701 43.615 30.195 43.397L25.371 41.321C24.865 41.105 24.275 41.337 24.057 41.844C23.838 42.351 24.072 42.939 24.579 43.158Z" fill="black" stroke="black" stroke-width="2"/>
<path d="M17.4589 40.092L19.7549 41.08C19.8839 41.135 20.0179 41.161 20.1509 41.161C20.5379 41.161 20.9069 40.934 21.0699 40.557C21.2879 40.049 21.0529 39.461 20.5469 39.243L18.2509 38.255C17.7429 38.04 17.1549 38.272 16.9369 38.778C16.7179 39.285 16.9519 39.873 17.4589 40.092Z" fill="black" stroke="black" stroke-width="2"/>
<path d="M80.7639 42.001C80.8869 42.001 81.0129 41.979 81.1339 41.93L83.4559 41.005C83.9689 40.801 84.2199 40.22 84.0149 39.706C83.8119 39.193 83.2289 38.941 82.7159 39.147L80.3939 40.072C79.8809 40.276 79.6299 40.857 79.8349 41.371C79.9909 41.763 80.3669 42.001 80.7639 42.001Z" fill="black" stroke="black" stroke-width="2"/>
<path d="M38.8901 27.222L40.5601 31.416C40.7151 31.808 41.0911 32.046 41.4891 32.046C41.6121 32.046 41.7381 32.024 41.8591 31.975C42.3721 31.771 42.6231 31.19 42.4181 30.676L40.7481 26.482C40.5451 25.969 39.9611 25.716 39.4491 25.923C38.9361 26.127 38.6851 26.708 38.8901 27.222Z" fill="black" stroke="black" stroke-width="2"/>
<path d="M37.2199 23.025C37.3749 23.417 37.7509 23.655 38.1489 23.655C38.2719 23.655 38.3979 23.633 38.5189 23.584C39.0319 23.38 39.2829 22.799 39.0779 22.285L38.1529 19.963C37.9499 19.45 37.3669 19.197 36.8539 19.404C36.3409 19.608 36.0899 20.189 36.2949 20.703L37.2199 23.025Z" fill="black" stroke="black" stroke-width="2"/>
<path d="M50.3921 23.919C50.9451 23.919 51.3921 23.472 51.3921 22.919V16.919C51.3921 16.366 50.9451 15.919 50.3921 15.919C49.8391 15.919 49.3921 16.366 49.3921 16.919V22.919C49.3921 23.472 49.8401 23.919 50.3921 23.919Z" fill="black" stroke="black" stroke-width="2"/>
<path d="M71.115 32.501C71.371 32.501 71.627 32.403 71.822 32.208L76.064 27.966C76.455 27.575 76.455 26.943 76.064 26.552C75.673 26.161 75.041 26.161 74.65 26.552L70.408 30.794C70.017 31.185 70.017 31.817 70.408 32.208C70.603 32.403 70.859 32.501 71.115 32.501Z" fill="black" stroke="black" stroke-width="2"/>
<path d="M28.9591 32.208C29.1541 32.403 29.4101 32.501 29.6661 32.501C29.9221 32.501 30.1781 32.403 30.3731 32.208C30.7641 31.817 30.7641 31.185 30.3731 30.794L26.1301 26.552C25.7391 26.161 25.1071 26.161 24.7161 26.552C24.3251 26.943 24.3251 27.575 24.7161 27.966L28.9591 32.208Z" fill="black" stroke="black" stroke-width="2"/>
<path d="M89.875 55.536C89.875 55.522 89.868 55.512 89.867 55.498C90.104 53.737 90.238 51.944 90.238 50.119C90.238 27.997 72.241 10 50.119 10C27.997 10 10 27.997 10 50.119C10 57.338 11.968 64.345 15.543 70.434C15.584 70.513 15.623 70.592 15.682 70.657C18.123 74.754 21.298 78.425 25.091 81.46C24.979 81.503 24.863 81.538 24.753 81.586C24.419 81.731 24.19 82.045 24.155 82.406C24.12 82.768 24.284 83.121 24.584 83.327L27.705 85.472L27.086 89.069C27.023 89.431 27.164 89.798 27.453 90.025C27.633 90.166 27.85 90.239 28.071 90.239C28.206 90.239 28.342 90.212 28.468 90.156C30.497 89.276 31.876 87.656 32.623 86.222C38.039 88.912 43.769 90.239 50.118 90.239C65.302 90.239 78.54 81.76 85.352 69.29C85.354 69.286 85.359 69.285 85.362 69.281C85.371 69.269 85.371 69.255 85.379 69.243C87.628 65.114 89.162 60.546 89.84 55.706C89.85 55.648 89.875 55.596 89.875 55.536ZM50.119 12C71.138 12 88.238 29.101 88.238 50.119C88.238 51.595 88.145 53.049 87.981 54.481C86.326 54.289 85.325 53.561 84.11 52.668C82.387 51.403 80.435 49.969 76.338 49.969C73.682 49.969 72.062 50.805 70.74 51.717C70.685 49.855 70.397 48.05 69.872 46.345C69.98 46.34 70.09 46.325 70.197 46.282L75.666 44.105C76.179 43.901 76.43 43.32 76.225 42.806C76.022 42.293 75.443 42.04 74.926 42.247L69.457 44.424C69.369 44.459 69.301 44.518 69.229 44.572C68.312 42.358 67.004 40.352 65.408 38.613L65.847 38.179C66.238 37.788 66.238 37.156 65.847 36.765C65.456 36.374 64.824 36.374 64.433 36.765L63.986 37.206C60.607 34.179 56.221 32.274 51.392 32.056V29.548C51.392 28.995 50.945 28.548 50.392 28.548C49.839 28.548 49.392 28.995 49.392 29.548V32.064C44.564 32.319 40.186 34.26 36.827 37.32L35.797 36.215C35.406 35.824 34.774 35.824 34.383 36.215C33.992 36.606 33.992 37.238 34.383 37.629L35.416 38.737C32.507 41.96 30.614 46.107 30.248 50.688C29.22 50.261 27.942 49.967 26.2 49.967C22.348 49.967 20.541 51.337 18.946 52.545C17.538 53.612 16.322 54.533 13.667 54.533C13.195 54.533 12.721 54.496 12.254 54.437C12.09 53.009 12 51.568 12 50.116C12 29.1 29.1 12 50.119 12ZM84.179 67.203C82.535 66.019 80.573 64.798 76.766 64.798C76.567 64.798 76.393 64.811 76.21 64.819L76.3 64.757C76.6 64.551 76.764 64.198 76.729 63.836C76.694 63.475 76.465 63.16 76.131 63.016C75.052 62.547 73.892 62.31 72.683 62.31C71.879 62.31 71.081 62.42 70.358 62.626C69.622 61.212 68.211 59.579 66.092 58.662C64.751 58.08 63.356 57.772 62.057 57.772C59.912 57.772 58.257 58.636 57.629 60.084C57.094 61.32 57.357 62.772 58.37 64.171C59.272 65.416 60.694 66.504 62.376 67.232C63.418 67.685 64.555 67.914 65.754 67.914C66.605 67.914 67.45 67.796 68.216 67.573C68.334 67.805 68.475 68.043 68.626 68.282C67.59 68.88 66.272 69.365 64.149 69.365C61.224 69.365 60.091 68.444 58.779 67.378C57.292 66.169 55.606 64.799 51.528 64.799C47.862 64.799 45.999 66.149 44.355 67.339C42.854 68.427 41.558 69.365 38.911 69.365C35.793 69.365 34.582 68.403 33.18 67.288C31.711 66.121 30.046 64.799 26.294 64.799C22.421 64.799 20.603 66.167 18.999 67.375C18.321 67.885 17.671 68.37 16.886 68.732C14.765 64.942 13.285 60.802 12.549 56.485C12.921 56.516 13.294 56.537 13.666 56.537C16.994 56.537 18.672 55.266 20.153 54.142C21.627 53.025 23.019 51.97 26.199 51.97C29.229 51.97 30.419 52.921 31.797 54.024C32.293 54.42 32.809 54.821 33.405 55.189C31.428 57.097 30.652 59.454 31.64 61.19C32.315 62.374 33.711 63.052 35.473 63.052C36.979 63.052 38.66 62.567 40.207 61.686C42.186 60.558 43.403 58.746 43.982 57.221C44.469 57.309 44.984 57.354 45.505 57.354C46.558 57.354 48.142 57.166 49.714 56.271C50.033 56.089 50.227 55.747 50.219 55.379C50.21 55.012 50.002 54.679 49.675 54.512L46.867 53.074C47.91 52.463 49.211 51.97 51.264 51.97C54.606 51.97 55.812 52.956 57.207 54.099C58.603 55.242 60.186 56.537 63.802 56.537C67.584 56.537 69.419 55.171 71.038 53.966C72.476 52.896 73.718 51.971 76.334 51.971C79.776 51.971 81.305 53.094 82.923 54.283C84.211 55.229 85.545 56.197 87.697 56.462C87.061 60.261 85.858 63.87 84.179 67.203ZM69.713 65.991C69.623 65.721 69.423 65.504 69.163 65.391C69.036 65.335 68.9 65.308 68.765 65.308C68.623 65.308 68.482 65.338 68.35 65.399C67.633 65.725 66.688 65.913 65.755 65.913C64.831 65.913 63.963 65.74 63.172 65.396C61.835 64.817 60.676 63.943 59.991 62.998C59.417 62.205 59.225 61.433 59.465 60.879C59.766 60.187 60.736 59.773 62.058 59.773C63.085 59.773 64.205 60.023 65.298 60.498C67.178 61.312 68.445 62.946 68.867 64.204C68.958 64.473 69.157 64.69 69.418 64.803C69.678 64.916 69.973 64.914 70.231 64.795C71.079 64.407 72.269 64.232 73.369 64.346L71.518 65.617C71.197 65.839 71.033 66.226 71.099 66.611L71.437 68.573C70.584 67.774 69.987 66.811 69.713 65.991ZM50.469 34.012C60.56 34.012 68.77 42.223 68.77 52.316C68.77 52.564 68.87 52.784 69.019 52.959C67.767 53.828 66.356 54.537 63.805 54.537C60.903 54.537 59.779 53.617 58.477 52.552C56.998 51.342 55.323 49.971 51.267 49.971C49.209 49.971 47.721 50.408 46.506 51.008L46.587 49.065C46.603 48.702 46.419 48.358 46.108 48.169C45.795 47.979 45.408 47.975 45.092 48.153C43.108 49.283 41.893 51.052 41.318 52.536C40.885 52.464 40.427 52.427 39.961 52.427C38.878 52.427 37.239 52.625 35.584 53.569C35.425 53.66 35.273 53.756 35.122 53.851C34.326 53.478 33.701 52.986 33.046 52.462C32.775 52.244 32.488 52.023 32.192 51.804C32.467 41.948 40.55 34.012 50.469 34.012ZM36.575 55.306C37.57 54.739 38.773 54.426 39.962 54.426C40.595 54.426 41.19 54.513 41.683 54.676C41.953 54.766 42.246 54.737 42.493 54.596C42.74 54.455 42.914 54.217 42.974 53.941C43.159 53.098 43.676 52.061 44.499 51.164L44.405 53.404C44.388 53.795 44.6 54.158 44.948 54.336L46.726 55.247C46.269 55.329 45.851 55.354 45.507 55.354C44.835 55.354 44.165 55.254 43.619 55.073C43.348 54.983 43.056 55.012 42.808 55.153C42.562 55.294 42.387 55.532 42.327 55.808C42.032 57.155 40.957 58.956 39.218 59.948C37.968 60.66 36.638 61.052 35.474 61.052C34.452 61.052 33.688 60.741 33.379 60.199C32.755 59.101 33.913 56.821 36.575 55.306ZM25.878 79.533C27.422 79.762 28.3 80.29 29.176 80.946C28.855 80.91 28.53 80.88 28.201 80.88C28.014 80.88 27.831 80.897 27.646 80.907C27.042 80.465 26.452 80.008 25.878 79.533ZM29.447 87.142L29.785 85.18C29.851 84.795 29.687 84.407 29.366 84.186L27.515 82.915C28.614 82.8 29.804 82.977 30.653 83.364C30.911 83.482 31.207 83.486 31.466 83.372C31.727 83.26 31.926 83.042 32.017 82.773C32.439 81.515 33.706 79.881 35.586 79.066C36.679 78.592 37.799 78.342 38.826 78.342C40.148 78.342 41.118 78.756 41.418 79.448C41.658 80.002 41.467 80.774 40.893 81.567C40.208 82.512 39.049 83.386 37.712 83.966C36.921 84.309 36.053 84.483 35.129 84.482C34.196 84.482 33.251 84.294 32.534 83.968C32.275 83.849 31.979 83.847 31.721 83.96C31.461 84.072 31.261 84.29 31.171 84.56C30.897 85.382 30.301 86.345 29.447 87.142ZM37.543 86.142C37.871 86.046 38.195 85.938 38.508 85.802C40.19 85.073 41.612 83.986 42.514 82.74C42.595 82.628 42.663 82.515 42.735 82.403C43.286 82.077 43.782 81.735 44.252 81.401C45.758 80.33 47.059 79.404 50.172 79.404C53.687 79.404 55.014 80.445 56.419 81.547C57.868 82.683 59.511 83.971 63.257 83.971C67.179 83.971 69.085 82.612 70.767 81.412C71.819 80.662 72.782 79.99 74.194 79.647C67.626 85.012 59.244 88.237 50.121 88.237C45.638 88.238 41.488 87.539 37.543 86.142ZM76.635 77.466C76.539 77.435 76.442 77.405 76.335 77.405C72.939 77.405 71.242 78.615 69.603 79.784C68.027 80.909 66.538 81.972 63.255 81.972C60.199 81.972 59.019 81.046 57.651 79.974C56.115 78.77 54.375 77.406 50.17 77.406C46.716 77.406 45.011 78.427 43.483 79.497C43.442 79.209 43.37 78.926 43.253 78.655C42.626 77.208 40.971 76.343 38.826 76.343C37.527 76.343 36.132 76.651 34.791 77.232C33.242 77.903 32.075 78.958 31.27 80.028C31.124 79.919 30.98 79.808 30.839 79.7C29.376 78.572 27.863 77.406 24.009 77.406C23.868 77.406 23.735 77.436 23.613 77.489C21.428 75.367 19.519 73.004 17.911 70.454C18.79 70.022 19.509 69.494 20.201 68.973C21.686 67.855 23.09 66.799 26.294 66.799C29.348 66.799 30.547 67.751 31.936 68.855C33.417 70.032 35.096 71.366 38.912 71.366C42.208 71.366 43.973 70.088 45.529 68.96C47.062 67.849 48.511 66.8 51.529 66.8C54.897 66.8 56.171 67.835 57.519 68.932C58.922 70.073 60.514 71.367 64.15 71.367C66.91 71.367 68.615 70.645 69.892 69.86C70.58 70.541 71.417 71.155 72.415 71.588C72.542 71.644 72.678 71.671 72.812 71.671C73.033 71.671 73.25 71.598 73.43 71.457C73.718 71.23 73.86 70.863 73.797 70.501L73.319 67.728C74.185 67.175 75.028 66.801 76.764 66.801C80.105 66.801 81.656 67.843 83.222 68.983C81.432 72.113 79.211 74.969 76.635 77.466Z" fill="black" stroke="black" stroke-width="2"/>
</svg>
