<svg width="17" height="17" viewBox="0 0 17 17" fill="none" xmlns="http://www.w3.org/2000/svg">
<path d="M6.5 1.5L8.5 0L10.5 1.5H13L13.5 4L16 5L15.5 7.5L17 9.5L15 11.5V14L12.5 14.5L11 16.5L8.5 15.5L6 16.5L4.5 14.5L2 14V11L0 9.5L1 7.5L0.5 5L3 4L3.5 1.5H6.5Z" fill="url(#paint0_linear_113_6109)"/>
<path d="M8.63361 11.1065C8.0749 11.1065 7.59431 10.9882 7.19185 10.7514C6.79176 10.5123 6.48399 10.1809 6.26855 9.7571C6.05549 9.33333 5.94895 8.84564 5.94895 8.29403C5.94895 7.73532 6.05667 7.24527 6.27211 6.82386C6.48991 6.40009 6.79886 6.06984 7.19895 5.8331C7.59905 5.59399 8.0749 5.47443 8.62651 5.47443C9.10236 5.47443 9.51903 5.56084 9.87651 5.73366C10.234 5.90649 10.5169 6.14915 10.7252 6.46165C10.9336 6.77415 11.0484 7.1411 11.0697 7.5625H9.64213C9.60189 7.29025 9.49535 7.07126 9.32253 6.90554C9.15208 6.73745 8.92836 6.65341 8.65137 6.65341C8.41699 6.65341 8.21221 6.71733 8.03702 6.84517C7.8642 6.97064 7.72926 7.15412 7.63219 7.3956C7.53513 7.63707 7.48659 7.92945 7.48659 8.27273C7.48659 8.62074 7.53394 8.91667 7.62864 9.16051C7.7257 9.40436 7.86183 9.5902 8.03702 9.71804C8.21221 9.84588 8.41699 9.9098 8.65137 9.9098C8.82419 9.9098 8.97926 9.87429 9.11657 9.80327C9.25624 9.73224 9.37106 9.62926 9.46103 9.49432C9.55336 9.35701 9.61373 9.19247 9.64213 9.00071H11.0697C11.046 9.41738 10.9324 9.78433 10.7288 10.1016C10.5276 10.4164 10.2494 10.6626 9.89426 10.8402C9.53915 11.0178 9.11893 11.1065 8.63361 11.1065Z" fill="white"/>
<defs>
<linearGradient id="paint0_linear_113_6109" x1="3" y1="3.5" x2="15" y2="14" gradientUnits="userSpaceOnUse">
<stop stop-color="#F43094"/>
<stop offset="0.445" stop-color="#BE3BEC"/>
<stop offset="1" stop-color="#8805EE"/>
</linearGradient>
</defs>
</svg>
