<svg width="24" height="24" viewBox="0 0 24 24" fill="none" xmlns="http://www.w3.org/2000/svg">
<g id="Group 110">
<path id="Vector" d="M5.76538 18.9918C5.27592 18.9918 4.85899 18.8196 4.51462 18.4752C4.17024 18.1308 3.99805 17.7139 3.99805 17.2244V7.78613C3.99805 7.29149 4.17024 6.87015 4.51462 6.5221C4.85899 6.17403 5.27592 6 5.76538 6H18.2119C18.7066 6 19.1279 6.17403 19.476 6.5221C19.824 6.87015 19.998 7.29149 19.998 7.78613V17.2244C19.998 17.7139 19.824 18.1308 19.476 18.4752C19.1279 18.8196 18.7066 18.9918 18.2119 18.9918H5.76538ZM11.9886 13.2573C12.0764 13.2573 12.1579 13.2448 12.2331 13.2197C12.3083 13.1947 12.3906 13.1568 12.4801 13.106L17.9487 9.44066C18.0114 9.40932 18.0709 9.34822 18.1273 9.25734C18.1837 9.16647 18.2119 9.06297 18.2119 8.94684C18.2119 8.72914 18.1085 8.55021 17.9017 8.41004C17.6949 8.26986 17.4849 8.27497 17.2718 8.42538L11.9886 11.8848L6.72425 8.42538C6.51117 8.2875 6.29809 8.27497 6.085 8.38778C5.87192 8.50059 5.76538 8.68134 5.76538 8.93003C5.76538 9.04113 5.79672 9.14148 5.85939 9.23106C5.92206 9.32065 5.98591 9.39093 6.05095 9.44188L11.4976 13.106C11.5868 13.1568 11.669 13.1947 11.7442 13.2197C11.8194 13.2448 11.9009 13.2573 11.9886 13.2573Z" fill="#777C89"/>
</g>
</svg>
