<svg width="20" height="20" viewBox="0 0 20 20" fill="none" xmlns="http://www.w3.org/2000/svg">
<g id="Group 225">
<circle id="Ellipse 7" cx="10" cy="10" r="9.5" stroke="#777C89"/>
<line id="Line 8" x1="1.02539" y1="6.16602" x2="18.9741" y2="6.16602" stroke="#777C89"/>
<line id="Line 9" x1="1.02539" y1="13.8555" x2="18.9741" y2="13.8555" stroke="#777C89"/>
<path id="Ellipse 8" d="M13.8586 10C13.8586 12.7094 13.3789 15.1383 12.6235 16.8713C12.2455 17.7385 11.8083 18.4088 11.3481 18.8553C10.8904 19.2995 10.4354 19.5 9.9996 19.5C9.56383 19.5 9.10885 19.2995 8.65108 18.8553C8.19095 18.4088 7.75371 17.7385 7.37569 16.8713C6.6203 15.1383 6.14062 12.7094 6.14062 10C6.14062 7.29064 6.6203 4.86166 7.37569 3.12872C7.75371 2.26149 8.19095 1.59117 8.65108 1.14469C9.10885 0.700499 9.56383 0.5 9.9996 0.5C10.4354 0.5 10.8904 0.700499 11.3481 1.14469C11.8083 1.59117 12.2455 2.26149 12.6235 3.12872C13.3789 4.86166 13.8586 7.29064 13.8586 10Z" stroke="#777C89"/>
</g>
</svg>
