<svg width="27" height="26" viewBox="0 0 27 26" fill="none" xmlns="http://www.w3.org/2000/svg">
<g id="KakaoTalk">
<path id="Shape" d="M0.105469 13C0.105469 5.82032 5.92579 0 13.1055 0C20.2852 0 26.1055 5.82032 26.1055 13C26.1055 20.1797 20.2852 26 13.1055 26C5.92579 26 0.105469 20.1797 0.105469 13Z" fill="#FFE812"/>
<path id="Shape_2" d="M13.1061 5.95703C8.31963 5.95703 4.43945 9.01647 4.43945 12.7904C4.43945 15.2303 6.06164 17.3712 8.50179 18.5801C8.36903 19.038 7.64872 21.5255 7.62001 21.7209C7.62001 21.7209 7.60279 21.8677 7.69785 21.9237C7.79297 21.9797 7.90477 21.9362 7.90477 21.9362C8.17744 21.8981 11.0667 19.8686 11.5668 19.5162C12.0664 19.5869 12.5808 19.6237 13.1061 19.6237C17.8926 19.6237 21.7728 16.5644 21.7728 12.7904C21.7728 9.01647 17.8926 5.95703 13.1061 5.95703Z" fill="#381F1F"/>
<path id="Shape_3" fill-rule="evenodd" clip-rule="evenodd" d="M8.31379 15.1771C8.03802 15.1771 7.81377 14.9629 7.81377 14.6996V11.7292H7.03361C6.76305 11.7292 6.54297 11.5095 6.54297 11.2396C6.54297 10.9696 6.7631 10.75 7.03361 10.75H9.59396C9.86452 10.75 10.0846 10.9696 10.0846 11.2396C10.0846 11.5095 9.86447 11.7292 9.59396 11.7292H8.8138V14.6996C8.8138 14.9629 8.58955 15.1771 8.31379 15.1771ZM12.6981 15.1706C12.4896 15.1706 12.3301 15.0859 12.282 14.9498L12.0344 14.3016L10.5098 14.3015L10.2621 14.9501C10.2141 15.086 10.0547 15.1706 9.84621 15.1706C9.73653 15.1707 9.62809 15.1471 9.52836 15.1016C9.39051 15.038 9.25802 14.8631 9.40985 14.3916L10.6058 11.2436C10.6901 11.0042 10.946 10.7575 11.2717 10.7501C11.5983 10.7574 11.8542 11.0042 11.9386 11.2441L13.1341 14.3906C13.2863 14.8633 13.1538 15.0383 13.0159 15.1016C12.9162 15.1471 12.8078 15.1706 12.6981 15.1706ZM11.2721 11.9972L11.7715 13.4159H10.7727L11.2721 11.9972ZM13.9388 15.1042C13.6745 15.1042 13.4596 14.8985 13.4596 14.6458V11.25C13.4596 10.9742 13.6886 10.75 13.97 10.75C14.2514 10.75 14.4804 10.9742 14.4804 11.25V14.1875H15.5429C15.8072 14.1875 16.0221 14.3931 16.0221 14.6458C16.0221 14.8985 15.8072 15.1042 15.5429 15.1042H13.9388ZM16.2166 14.6706C16.2166 14.9463 16.4408 15.1706 16.7166 15.1706C16.8492 15.1704 16.9763 15.1176 17.0701 15.0239C17.1639 14.9301 17.2166 14.803 17.2168 14.6703V13.5794L17.3903 13.4059L18.5629 14.9596C18.6093 15.0216 18.6696 15.0718 18.739 15.1064C18.8083 15.1409 18.8848 15.1587 18.9622 15.1584C19.0709 15.1586 19.1766 15.1231 19.263 15.0574C19.3156 15.018 19.3598 14.9686 19.3931 14.912C19.4263 14.8554 19.4481 14.7927 19.457 14.7277C19.4664 14.6626 19.4627 14.5964 19.4462 14.5328C19.4297 14.4692 19.4008 14.4096 19.361 14.3572L18.1302 12.7268L19.2697 11.5875C19.348 11.5091 19.3873 11.401 19.38 11.2831C19.3728 11.1662 19.3206 11.0536 19.233 10.9661C19.1391 10.8723 19.0138 10.8184 18.889 10.8184C18.7819 10.8184 18.6833 10.8579 18.6116 10.9297L17.2166 12.3247V11.25C17.2166 10.9742 16.9924 10.75 16.7166 10.75C16.4408 10.75 16.2166 10.9742 16.2166 11.25V14.6706Z" fill="#FFE812"/>
</g>
</svg>
