<svg width="60" height="60" viewBox="0 0 60 60" fill="none" xmlns="http://www.w3.org/2000/svg">
<g id="Group 247">
<rect id="Rectangle 128" width="60" height="60" rx="30" fill="#0047AB"/>
<path id="Vector 10" d="M12 28.3026L30.5158 37.1724L48.8098 28.3026M12 28.3026L30.5158 46.0423M12 28.3026L17.8763 14M12 28.3026L16.7675 27.1939M12 28.3026L17.1775 22.3155M48.8098 28.3026L30.5158 46.0423M48.8098 28.3026L42.6009 14M48.8098 28.3026L44.0125 27.1939M48.8098 28.3026L43.4906 22.3155M30.5158 23.7568L42.6009 14M30.5158 23.7568L17.8763 14M30.5158 23.7568L36.2812 25.225M30.5158 23.7568L24.643 25.225M30.5158 23.7568L22.1538 21.0959M30.5158 23.7568L38.6059 21.0959M30.5158 46.0423L16.7675 27.1939M30.5158 46.0423L44.0125 27.1939M30.5158 46.0423L36.2812 25.225M30.5158 46.0423L24.643 25.225M42.6009 14L38.6059 21.0959M42.6009 14L43.4906 22.3155M17.8763 14L17.1775 22.3155M17.8763 14L22.1538 21.0959M16.7675 27.1939L24.643 25.225M16.7675 27.1939L17.1775 22.3155M44.0125 27.1939L36.2812 25.225M44.0125 27.1939L43.4906 22.3155M36.2812 25.225L38.6059 21.0959M24.643 25.225L22.1538 21.0959M17.1775 22.3155L22.1538 21.0959M38.6059 21.0959L43.4906 22.3155" stroke="white"/>
</g>
</svg>
