<svg width="60" height="60" viewBox="0 0 60 60" fill="none" xmlns="http://www.w3.org/2000/svg">
<g id="Group 246">
<rect id="Rectangle 128" width="60" height="60" rx="12" fill="#0047AB"/>
<path id="Vector 10" d="M11.4102 27.9237L29.9259 36.7935L48.22 27.9237M11.4102 27.9237L29.9259 45.6634M11.4102 27.9237L17.2864 13.6211M11.4102 27.9237L16.1777 26.815M11.4102 27.9237L16.5876 21.9366M48.22 27.9237L29.9259 45.6634M48.22 27.9237L42.0111 13.6211M48.22 27.9237L43.4227 26.815M48.22 27.9237L42.9008 21.9366M29.9259 23.3779L42.0111 13.6211M29.9259 23.3779L17.2864 13.6211M29.9259 23.3779L35.6913 24.8461M29.9259 23.3779L24.0531 24.8461M29.9259 23.3779L21.564 20.717M29.9259 23.3779L38.0161 20.717M29.9259 45.6634L16.1777 26.815M29.9259 45.6634L43.4227 26.815M29.9259 45.6634L35.6913 24.8461M29.9259 45.6634L24.0531 24.8461M42.0111 13.6211L38.0161 20.717M42.0111 13.6211L42.9008 21.9366M17.2864 13.6211L16.5876 21.9366M17.2864 13.6211L21.564 20.717M16.1777 26.815L24.0531 24.8461M16.1777 26.815L16.5876 21.9366M43.4227 26.815L35.6913 24.8461M43.4227 26.815L42.9008 21.9366M35.6913 24.8461L38.0161 20.717M24.0531 24.8461L21.564 20.717M16.5876 21.9366L21.564 20.717M38.0161 20.717L42.9008 21.9366" stroke="white"/>
</g>
</svg>
