<svg width="24" height="24" viewBox="0 0 24 24" fill="none" xmlns="http://www.w3.org/2000/svg">
<g id="Group 112">
<path id="Vector" d="M11.998 11.5C10.898 11.5 9.99805 11.15 9.29805 10.45C8.59805 9.75 8.24805 8.85 8.24805 7.75C8.24805 6.65 8.59805 5.75 9.29805 5.05C9.99805 4.35 10.898 4 11.998 4C13.098 4 13.998 4.35 14.698 5.05C15.398 5.75 15.748 6.65 15.748 7.75C15.748 8.85 15.398 9.75 14.698 10.45C13.998 11.15 13.098 11.5 11.998 11.5ZM5.49805 19.525C5.08138 19.525 4.72721 19.3792 4.43555 19.0875C4.14388 18.7958 3.99805 18.4417 3.99805 18.025V17.175C3.99805 16.5417 4.15638 16 4.47305 15.55C4.78971 15.1 5.19805 14.7583 5.69805 14.525C6.81471 14.025 7.88555 13.65 8.91055 13.4C9.93555 13.15 10.9647 13.025 11.998 13.025C13.0314 13.025 14.0564 13.1542 15.073 13.4125C16.0897 13.6708 17.1564 14.0417 18.273 14.525C18.7897 14.7583 19.2064 15.1 19.523 15.55C19.8397 16 19.998 16.5417 19.998 17.175V18.025C19.998 18.4417 19.8522 18.7958 19.5605 19.0875C19.2689 19.3792 18.9147 19.525 18.498 19.525H5.49805Z" fill="#777C89"/>
</g>
</svg>
