<svg width="27" height="27" viewBox="0 0 27 27" fill="none" xmlns="http://www.w3.org/2000/svg">
<g id="Group 179">
<path id="Union" d="M19.4379 4.61845L19.9682 5.14878L19.4379 4.61845ZM22.2663 4.61845L21.736 5.14878L21.736 5.14879L22.2663 4.61845ZM22.5575 4.90962L23.0878 4.37929L23.0878 4.37929L22.5575 4.90962ZM22.5575 7.73804L23.0878 8.26837V8.26837L22.5575 7.73804ZM7.70825 22.5873L8.23858 23.1176H8.23858L7.70825 22.5873ZM4.87983 22.5873L4.3495 23.1176L4.3495 23.1176L4.87983 22.5873ZM4.58867 22.2961L5.119 21.7658L5.119 21.7658L4.58867 22.2961ZM4.58867 19.4677L5.119 19.998L4.58867 19.4677ZM4.77893 7.42226L5.30926 6.89193L4.77893 7.42226ZM4.77893 4.59384L4.2486 4.06351L4.2486 4.06351L4.77893 4.59384ZM5.07009 4.30267L5.60042 4.833L5.60042 4.833L5.07009 4.30267ZM7.89852 4.30267L7.36819 4.833L7.89852 4.30267ZM5.18436 16.4485L4.47747 16.6991L5.18436 16.4485ZM9.80921 21.515L9.49487 22.196L9.80921 21.515ZM8.5902 21.7053L8.05987 21.175L8.5902 21.7053ZM21.8231 10.5543L21.1161 10.8046L21.8231 10.5543ZM8.79664 5.2008L9.32697 4.67047L8.79664 5.2008ZM9.99233 5.40213L10.291 6.09009L9.99233 5.40213ZM16.4458 21.8205L16.1958 21.1134L16.4458 21.8205ZM17.4045 5.58328L17.0725 6.25576L17.4045 5.58328ZM18.6501 5.40631L19.1804 5.93664L18.6501 5.40631ZM10.5516 21.8174L10.8024 21.1106L10.5516 21.8174ZM5.18308 10.5543L5.89008 10.8046L5.18308 10.5543ZM21.6005 17.0103L22.2885 17.309L21.6005 17.0103ZM21.8218 16.4485L21.1149 16.1979L21.8218 16.4485ZM17.5803 21.3266L17.9274 21.9915L17.5803 21.3266ZM21.7088 8.58671L22.2392 9.11704L21.7088 8.58671ZM21.5185 9.80572L20.8376 10.1201L21.5185 9.80572ZM16.4458 5.17869L16.1958 5.88577L16.4458 5.17869ZM13.2923 0.25C11.7735 0.25 10.5423 1.48122 10.5423 3H12.0423C12.0423 2.30964 12.6019 1.75 13.2923 1.75V0.25ZM13.704 0.25H13.2923V1.75H13.704V0.25ZM16.454 3C16.454 1.48122 15.2228 0.25 13.704 0.25V1.75C14.3944 1.75 14.954 2.30964 14.954 3H16.454ZM16.454 4.1771V3H14.954V4.1771H16.454ZM16.1958 5.88577C16.4965 5.99215 16.7892 6.11588 17.0725 6.25576L17.7366 4.91079C17.4004 4.7448 17.0531 4.59792 16.6959 4.47161L16.1958 5.88577ZM18.9076 4.08812L18.1197 4.87598L19.1804 5.93664L19.9682 5.14878L18.9076 4.08812ZM22.7967 4.08812C21.7227 3.01418 19.9815 3.01418 18.9076 4.08812L19.9682 5.14878C20.4564 4.66063 21.2479 4.66063 21.736 5.14878L22.7967 4.08812ZM23.0878 4.37929L22.7967 4.08812L21.736 5.14879L22.0272 5.43995L23.0878 4.37929ZM23.0878 8.26837C24.1618 7.19443 24.1618 5.45323 23.0878 4.37929L22.0272 5.43995C22.5153 5.9281 22.5153 6.71956 22.0272 7.20771L23.0878 8.26837ZM22.2392 9.11704L23.0878 8.26837L22.0272 7.20771L21.1785 8.05638L22.2392 9.11704ZM20.8376 10.1201C20.9405 10.343 21.0335 10.5713 21.1161 10.8046L22.5301 10.304C22.432 10.027 22.3216 9.75594 22.1995 9.49139L20.8376 10.1201ZM24 10.5458H22.8246V12.0458H24V10.5458ZM26.75 13.2958C26.75 11.777 25.5188 10.5458 24 10.5458V12.0458C24.6904 12.0458 25.25 12.6054 25.25 13.2958H26.75ZM26.75 13.7075V13.2958H25.25V13.7075H26.75ZM24 16.4575C25.5188 16.4575 26.75 15.2263 26.75 13.7075H25.25C25.25 14.3979 24.6904 14.9575 24 14.9575V16.4575ZM22.8231 16.4575H24V14.9575H22.8231V16.4575ZM21.1149 16.1979C21.0532 16.372 20.9857 16.5433 20.9126 16.7117L22.2885 17.309C22.3753 17.1092 22.4554 16.9058 22.5287 16.6991L21.1149 16.1979ZM23.2781 18.6216L22.3322 17.6757L21.2715 18.7364L22.2174 19.6822L23.2781 18.6216ZM23.2781 22.5107C24.352 21.4367 24.352 19.6955 23.2781 18.6216L22.2174 19.6822C22.7056 20.1704 22.7056 20.9619 22.2174 21.45L23.2781 22.5107ZM22.9869 22.8018L23.2781 22.5107L22.2174 21.45L21.9263 21.7412L22.9869 22.8018ZM19.0978 22.8018C20.1718 23.8758 21.913 23.8758 22.9869 22.8018L21.9263 21.7412C21.4381 22.2293 20.6467 22.2293 20.1585 21.7412L19.0978 22.8018ZM18.318 22.022L19.0978 22.8018L20.1585 21.7412L19.3786 20.9613L18.318 22.022ZM17.2333 20.6618C16.9003 20.8356 16.5538 20.9868 16.1958 21.1134L16.6959 22.5276C17.121 22.3772 17.5323 22.1977 17.9274 21.9915L17.2333 20.6618ZM16.454 24V22.8221H14.954V24H16.454ZM13.704 26.75C15.2228 26.75 16.454 25.5188 16.454 24H14.954C14.954 24.6904 14.3944 25.25 13.704 25.25V26.75ZM13.2923 26.75H13.704V25.25H13.2923V26.75ZM10.5423 24C10.5423 25.5188 11.7735 26.75 13.2923 26.75V25.25C12.6019 25.25 12.0423 24.6904 12.0423 24H10.5423ZM10.5423 22.8186V24H12.0423V22.8186H10.5423ZM10.8024 21.1106C10.5711 21.0285 10.3446 20.9362 10.1235 20.8341L9.49487 22.196C9.75729 22.3171 10.0262 22.4268 10.3008 22.5242L10.8024 21.1106ZM8.23858 23.1176L9.12053 22.2357L8.05987 21.175L7.17792 22.057L8.23858 23.1176ZM4.3495 23.1176C5.42344 24.1916 7.16464 24.1916 8.23858 23.1176L7.17792 22.057C6.68977 22.5451 5.89831 22.5451 5.41016 22.057L4.3495 23.1176ZM4.05834 22.8265L4.3495 23.1176L5.41016 22.057L5.119 21.7658L4.05834 22.8265ZM4.05834 18.9374C2.98439 20.0113 2.98439 21.7525 4.05834 22.8265L5.119 21.7658C4.63084 21.2776 4.63084 20.4862 5.119 19.998L4.05834 18.9374ZM4.87947 18.1162L4.05834 18.9374L5.119 19.998L5.94013 19.1769L4.87947 18.1162ZM6.25925 17.069C6.12024 16.7875 5.99719 16.4967 5.89126 16.1979L4.47747 16.6991C4.60325 17.0539 4.74932 17.399 4.91428 17.7331L6.25925 17.069ZM3 16.4575H4.18304V14.9575H3V16.4575ZM0.25 13.7075C0.25 15.2263 1.48122 16.4575 3 16.4575V14.9575C2.30964 14.9575 1.75 14.3979 1.75 13.7075H0.25ZM0.25 13.2958V13.7075H1.75V13.2958H0.25ZM3 10.5458C1.48122 10.5458 0.25 11.777 0.25 13.2958H1.75C1.75 12.6054 2.30964 12.0458 3 12.0458V10.5458ZM4.1816 10.5458H3V12.0458H4.1816V10.5458ZM5.89008 10.8046C6.01654 10.4474 6.16747 10.1016 6.34089 9.76941L5.01115 9.0753C4.8054 9.46948 4.62623 9.87985 4.47607 10.304L5.89008 10.8046ZM4.2486 7.95259L4.9807 8.6847L6.04136 7.62404L5.30926 6.89193L4.2486 7.95259ZM4.2486 4.06351C3.17466 5.13745 3.17465 6.87865 4.2486 7.95259L5.30926 6.89193C4.8211 6.40378 4.8211 5.61232 5.30926 5.12417L4.2486 4.06351ZM4.53976 3.77234L4.2486 4.06351L5.30926 5.12417L5.60042 4.833L4.53976 3.77234ZM8.42885 3.77234C7.3549 2.6984 5.6137 2.6984 4.53976 3.77234L5.60042 4.833C6.08857 4.34485 6.88003 4.34485 7.36819 4.833L8.42885 3.77234ZM9.32697 4.67047L8.42885 3.77234L7.36819 4.833L8.26631 5.73113L9.32697 4.67047ZM10.291 6.09009C10.4586 6.01732 10.6292 5.95008 10.8024 5.88859L10.3008 4.47496C10.0951 4.54796 9.8926 4.62779 9.69365 4.71417L10.291 6.09009ZM10.5423 3V4.18056H12.0423V3H10.5423ZM10.8024 5.88859C11.4945 5.64303 12.0423 4.99173 12.0423 4.18056H10.5423C10.5423 4.28153 10.4684 4.41549 10.3008 4.47496L10.8024 5.88859ZM6.34089 9.76941C6.69142 9.09788 6.63379 8.21647 6.04136 7.62404L4.9807 8.6847C5.05424 8.75823 5.09644 8.91191 5.01115 9.0753L6.34089 9.76941ZM5.89126 16.1979C5.64584 15.5056 4.99444 14.9575 4.18304 14.9575V16.4575C4.28403 16.4575 4.41803 16.5314 4.47747 16.6991L5.89126 16.1979ZM10.1235 20.8341C9.46366 20.5295 8.627 20.6079 8.05987 21.175L9.12053 22.2357C9.19123 22.165 9.33577 22.1226 9.49487 22.196L10.1235 20.8341ZM21.1161 10.8046C21.3613 11.4972 22.0128 12.0458 22.8246 12.0458V10.5458C22.7235 10.5458 22.5895 10.4718 22.5301 10.304L21.1161 10.8046ZM5.94013 19.1769C6.52085 18.5962 6.58835 17.7355 6.25925 17.069L4.91428 17.7331C4.99401 17.8946 4.9517 18.044 4.87947 18.1162L5.94013 19.1769ZM8.26631 5.73113C8.82166 6.28648 9.63752 6.3738 10.291 6.09009L9.69365 4.71417C9.53672 4.7823 9.39634 4.73984 9.32697 4.67047L8.26631 5.73113ZM16.1958 21.1134C15.5029 21.3585 14.954 22.0101 14.954 22.8221H16.454C16.454 22.721 16.528 22.5869 16.6959 22.5276L16.1958 21.1134ZM17.0725 6.25576C17.739 6.58487 18.5997 6.51736 19.1804 5.93664L18.1197 4.87598C18.0475 4.94821 17.8981 4.99053 17.7366 4.91079L17.0725 6.25576ZM12.0423 22.8186C12.0423 22.0074 11.4945 21.3561 10.8024 21.1106L10.3008 22.5242C10.4684 22.5837 10.5423 22.7176 10.5423 22.8186H12.0423ZM4.1816 12.0458C4.99332 12.0458 5.64488 11.4972 5.89008 10.8046L4.47607 10.304C4.41668 10.4718 4.28262 10.5458 4.1816 10.5458V12.0458ZM20.9126 16.7117C20.6289 17.3651 20.7162 18.181 21.2715 18.7364L22.3322 17.6757C22.2628 17.6063 22.2204 17.4659 22.2885 17.309L20.9126 16.7117ZM22.8231 14.9575C22.0117 14.9575 21.3603 15.5056 21.1149 16.1979L22.5287 16.6991C22.5881 16.5314 22.7221 16.4575 22.8231 16.4575V14.9575ZM19.3786 20.9613C18.7862 20.3689 17.9048 20.3113 17.2333 20.6618L17.9274 21.9915C18.0908 21.9062 18.2444 21.9484 18.318 22.022L19.3786 20.9613ZM21.1785 8.05638C20.6114 8.62351 20.533 9.46017 20.8376 10.1201L22.1995 9.49139C22.126 9.33228 22.1685 9.18775 22.2392 9.11704L21.1785 8.05638ZM14.954 4.1771C14.954 4.98905 15.5029 5.64072 16.1958 5.88577L16.6959 4.47161C16.528 4.41225 16.454 4.27815 16.454 4.1771H14.954Z" fill="white"/>
<circle id="Ellipse 4" cx="13.4986" cy="13.5064" r="4.39706" stroke="white" stroke-width="1.5"/>
</g>
</svg>
