<svg width="200" height="200" viewBox="0 0 200 200" fill="none" xmlns="http://www.w3.org/2000/svg">
<g id="Group 331">
<g id="Group 230">
<circle id="Ellipse 6" cx="100" cy="100" r="96.5" fill="#FE3679" stroke="white" stroke-width="7"/>
</g>
<path id="Subtract" fill-rule="evenodd" clip-rule="evenodd" d="M103.083 7.05351C102.026 7.01793 100.965 7 99.9 7C48.5927 7 7 48.5927 7 99.9C7 127.435 18.9792 152.172 38.0102 169.184C29.6995 153.279 25 135.188 25 116C25 65.4005 57.6791 22.4337 103.083 7.05351Z" fill="#FE5B8D"/>
<path id="Subtract_2" fill-rule="evenodd" clip-rule="evenodd" d="M108.438 192.554C60.5082 170.983 27 121.605 27 64.1413C27 55.9089 27.6877 47.8425 29.007 40C15.2794 56.1926 7 77.15 7 100.041C7 151.349 48.5927 192.941 99.9 192.941C102.778 192.941 105.626 192.81 108.438 192.554Z" fill="#E21928"/>
<path id="Subtract_3" fill-rule="evenodd" clip-rule="evenodd" d="M29.007 40C15.2794 56.1926 7 77.15 7 100.041C7 127.576 18.9792 152.313 38.0102 169.325C29.6995 153.42 25 135.33 25 116.141C25 106.01 26.31 96.1856 28.7698 86.8269C27.6054 79.443 27 71.8652 27 64.1413C27 55.9089 27.6877 47.8425 29.007 40Z" fill="#F92952"/>
</g>
</svg>
